<svg width="57" height="57" viewBox="0 0 57 57" fill="none" xmlns="http://www.w3.org/2000/svg">
<path d="M0 10.2051C0 4.569 4.56899 0 10.2051 0H45.9231C51.5592 0 56.1282 4.56899 56.1282 10.2051V45.9231C56.1282 51.5592 51.5592 56.1282 45.9231 56.1282H10.2051C4.569 56.1282 0 51.5592 0 45.9231V10.2051Z" fill="#E6FAF7"/>
<path d="M28.0642 17.6459C28.066 17.0506 27.9487 16.461 27.7192 15.9118C27.4898 15.3625 27.1528 14.8647 26.7282 14.4475C26.3035 14.0304 25.7997 13.7024 25.2465 13.4828C24.6932 13.2633 24.1016 13.1565 23.5065 13.1689C22.9113 13.1813 22.3247 13.3126 21.781 13.5551C21.2374 13.7975 20.7477 14.1462 20.3408 14.5807C19.9339 15.0151 19.618 15.5266 19.4116 16.0849C19.2053 16.6433 19.1126 17.2372 19.1392 17.8319C18.2644 18.0568 17.4523 18.4779 16.7643 19.0631C16.0763 19.6484 15.5306 20.3826 15.1683 21.21C14.8061 22.0374 14.6369 22.9364 14.6735 23.8389C14.7102 24.7414 14.9517 25.6238 15.3799 26.4191C14.6271 27.0307 14.0351 27.8169 13.6555 28.7094C13.2759 29.6019 13.1201 30.5737 13.2016 31.5401C13.2832 32.5066 13.5997 33.4385 14.1235 34.2547C14.6474 35.071 15.3627 35.7469 16.2074 36.2237C16.103 37.0306 16.1653 37.8504 16.3902 38.6324C16.6152 39.4144 16.9981 40.142 17.5152 40.7702C18.0323 41.3984 18.6728 41.9139 19.397 42.2849C20.1212 42.6559 20.9138 42.8745 21.7257 42.9272C22.5377 42.9799 23.3519 42.8656 24.118 42.5913C24.884 42.317 25.5857 41.8886 26.1797 41.3325C26.7737 40.7764 27.2474 40.1044 27.5716 39.358C27.8957 38.6117 28.0634 37.8068 28.0642 36.9931V17.6459Z" stroke="#00BFA6" stroke-width="2.55128" stroke-linecap="round" stroke-linejoin="round"/>
<path d="M28.0642 17.6459C28.0625 17.0506 28.1798 16.461 28.4092 15.9118C28.6387 15.3625 28.9756 14.8647 29.4003 14.4475C29.8249 14.0304 30.3287 13.7024 30.882 13.4828C31.4353 13.2633 32.0269 13.1565 32.622 13.1689C33.2171 13.1813 33.8038 13.3126 34.3474 13.5551C34.8911 13.7975 35.3807 14.1462 35.7876 14.5807C36.1945 15.0151 36.5105 15.5266 36.7168 16.0849C36.9232 16.6433 37.0158 17.2372 36.9892 17.8319C37.864 18.0568 38.6762 18.4779 39.3642 19.0631C40.0521 19.6484 40.5979 20.3826 40.9601 21.21C41.3224 22.0374 41.4916 22.9364 41.4549 23.8389C41.4183 24.7414 41.1767 25.6238 40.7486 26.4191C41.5014 27.0307 42.0933 27.8169 42.4729 28.7094C42.8526 29.6019 43.0084 30.5737 42.9268 31.5401C42.8453 32.5066 42.5288 33.4385 42.0049 34.2547C41.4811 35.071 40.7657 35.7469 39.9211 36.2237C40.0254 37.0306 39.9632 37.8504 39.7382 38.6324C39.5133 39.4144 39.1304 40.142 38.6132 40.7702C38.0961 41.3984 37.4557 41.9139 36.7315 42.2849C36.0073 42.6559 35.2147 42.8745 34.4027 42.9272C33.5907 42.9799 32.7766 42.8656 32.0105 42.5913C31.2444 42.317 30.5427 41.8886 29.9487 41.3325C29.3547 40.7764 28.881 40.1044 28.5569 39.358C28.2328 38.6117 28.0651 37.8068 28.0642 36.9931V17.6459Z" stroke="#00BFA6" stroke-width="2.55128" stroke-linecap="round" stroke-linejoin="round"/>
<path d="M32.5289 29.5526C31.2795 29.1131 30.1884 28.3129 29.3937 27.2533C28.599 26.1936 28.1363 24.9222 28.0642 23.5996C27.9921 24.9222 27.5294 26.1936 26.7347 27.2533C25.94 28.3129 24.8489 29.1131 23.5994 29.5526" stroke="#00BFA6" stroke-width="2.55128" stroke-linecap="round" stroke-linejoin="round"/>
<path d="M36.3969 19.8784C36.7571 19.2542 36.9609 18.5521 36.9908 17.832" stroke="#00BFA6" stroke-width="2.55128" stroke-linecap="round" stroke-linejoin="round"/>
<path d="M19.1392 17.832C19.1686 18.5519 19.3718 19.254 19.7315 19.8784" stroke="#00BFA6" stroke-width="2.55128" stroke-linecap="round" stroke-linejoin="round"/>
<path d="M15.3798 26.4204C15.6521 26.1987 15.9434 26.0014 16.2505 25.8311" stroke="#00BFA6" stroke-width="2.55128" stroke-linecap="round" stroke-linejoin="round"/>
<path d="M39.8779 25.8311C40.1849 26.0014 40.4763 26.1987 40.7485 26.4204" stroke="#00BFA6" stroke-width="2.55128" stroke-linecap="round" stroke-linejoin="round"/>
<path d="M19.1348 36.9935C18.1091 36.994 17.1007 36.7295 16.2074 36.2256" stroke="#00BFA6" stroke-width="2.55128" stroke-linecap="round" stroke-linejoin="round"/>
<path d="M39.921 36.2256C39.0277 36.7295 38.0193 36.994 36.9936 36.9935" stroke="#00BFA6" stroke-width="2.55128" stroke-linecap="round" stroke-linejoin="round"/>
</svg>
