<svg width="66" height="66" viewBox="0 0 66 66" fill="none" xmlns="http://www.w3.org/2000/svg">
<g filter="url(#filter0_d_1628_5223)">
<rect x="4" width="58" height="58" rx="12" fill="url(#paint0_linear_1628_5223)"/>
</g>
<g clip-path="url(#clip0_1628_5223)">
<g clip-path="url(#clip1_1628_5223)">
<path d="M39.6667 29C41.4348 29 43.1305 29.7024 44.3807 30.9526C45.631 32.2029 46.3333 33.8986 46.3333 35.6667C46.3333 37.4348 45.631 39.1305 44.3807 40.3807C43.1305 41.631 41.4348 42.3333 39.6667 42.3333C37.8986 42.3333 36.2029 41.631 34.9526 40.3807C33.7024 39.1305 33 37.4348 33 35.6667C33 33.8986 33.7024 32.2029 34.9526 30.9526C36.2029 29.7024 37.8986 29 39.6667 29ZM38.3333 17C38.687 17 39.0261 17.1405 39.2761 17.3905C39.5262 17.6406 39.6667 17.9797 39.6667 18.3333V19.6667H42.3333C43.0406 19.6667 43.7189 19.9476 44.219 20.4477C44.719 20.9478 45 21.6261 45 22.3333V26.3333H42.3333V22.3333H23.6667V38.3333H30.3333V41H23.6667C22.9594 41 22.2811 40.719 21.781 40.219C21.281 39.7189 21 39.0406 21 38.3333V22.3333C21 21.6261 21.281 20.9478 21.781 20.4477C22.2811 19.9476 22.9594 19.6667 23.6667 19.6667H26.3333V18.3333C26.3333 17.9797 26.4738 17.6406 26.7239 17.3905C26.9739 17.1405 27.313 17 27.6667 17C28.0203 17 28.3594 17.1405 28.6095 17.3905C28.8595 17.6406 29 17.9797 29 18.3333V19.6667H37V18.3333C37 17.9797 37.1405 17.6406 37.3905 17.3905C37.6406 17.1405 37.9797 17 38.3333 17ZM39.6667 31.6667C38.6058 31.6667 37.5884 32.0881 36.8382 32.8382C36.0881 33.5884 35.6667 34.6058 35.6667 35.6667C35.6667 36.7275 36.0881 37.7449 36.8382 38.4951C37.5884 39.2452 38.6058 39.6667 39.6667 39.6667C40.7275 39.6667 41.7449 39.2452 42.4951 38.4951C43.2452 37.7449 43.6667 36.7275 43.6667 35.6667C43.6667 34.6058 43.2452 33.5884 42.4951 32.8382C41.7449 32.0881 40.7275 31.6667 39.6667 31.6667ZM39.6667 32.3333C40.0203 32.3333 40.3594 32.4738 40.6095 32.7239C40.8595 32.9739 41 33.313 41 33.6667V34.3333C41.3536 34.3333 41.6928 34.4738 41.9428 34.7239C42.1929 34.9739 42.3333 35.313 42.3333 35.6667C42.3333 36.0203 42.1929 36.3594 41.9428 36.6095C41.6928 36.8595 41.3536 37 41 37H39.6667C39.313 37 38.9739 36.8595 38.7239 36.6095C38.4738 36.3594 38.3333 36.0203 38.3333 35.6667V33.6667C38.3333 33.313 38.4738 32.9739 38.7239 32.7239C38.9739 32.4738 39.313 32.3333 39.6667 32.3333ZM28.3333 31.6667C28.6732 31.667 29 31.7972 29.2472 32.0305C29.4943 32.2638 29.643 32.5826 29.6629 32.9219C29.6828 33.2611 29.5724 33.5952 29.3543 33.8558C29.1362 34.1164 28.8268 34.2839 28.4893 34.324L28.3333 34.3333H27.6667C27.3268 34.333 27 34.2028 26.7528 33.9695C26.5057 33.7362 26.357 33.4174 26.3371 33.0781C26.3172 32.7389 26.4276 32.4048 26.6457 32.1442C26.8638 31.8836 27.1732 31.7161 27.5107 31.676L27.6667 31.6667H28.3333ZM31.6667 26.3333C32.0203 26.3333 32.3594 26.4738 32.6095 26.7239C32.8595 26.9739 33 27.313 33 27.6667C33 28.0203 32.8595 28.3594 32.6095 28.6095C32.3594 28.8595 32.0203 29 31.6667 29H27.6667C27.313 29 26.9739 28.8595 26.7239 28.6095C26.4738 28.3594 26.3333 28.0203 26.3333 27.6667C26.3333 27.313 26.4738 26.9739 26.7239 26.7239C26.9739 26.4738 27.313 26.3333 27.6667 26.3333H31.6667Z" fill="white"/>
</g>
</g>
<defs>
<filter id="filter0_d_1628_5223" x="0" y="0" width="66" height="66" filterUnits="userSpaceOnUse" color-interpolation-filters="sRGB">
<feFlood flood-opacity="0" result="BackgroundImageFix"/>
<feColorMatrix in="SourceAlpha" type="matrix" values="0 0 0 0 0 0 0 0 0 0 0 0 0 0 0 0 0 0 127 0" result="hardAlpha"/>
<feOffset dy="4"/>
<feGaussianBlur stdDeviation="2"/>
<feComposite in2="hardAlpha" operator="out"/>
<feColorMatrix type="matrix" values="0 0 0 0 0 0 0 0 0 0 0 0 0 0 0 0 0 0 0.1 0"/>
<feBlend mode="normal" in2="BackgroundImageFix" result="effect1_dropShadow_1628_5223"/>
<feBlend mode="normal" in="SourceGraphic" in2="effect1_dropShadow_1628_5223" result="shape"/>
</filter>
<linearGradient id="paint0_linear_1628_5223" x1="7.5" y1="3.5" x2="55.5" y2="54" gradientUnits="userSpaceOnUse">
<stop stop-color="#F56919"/>
<stop offset="1" stop-color="#E03323"/>
</linearGradient>
<clipPath id="clip0_1628_5223">
<rect width="32" height="32" fill="white" transform="translate(17 13)"/>
</clipPath>
<clipPath id="clip1_1628_5223">
<rect width="32" height="32" fill="white" transform="translate(17 13)"/>
</clipPath>
</defs>
</svg>
