<svg width="26" height="26" viewBox="0 0 26 26" fill="none" xmlns="http://www.w3.org/2000/svg">
<path d="M18.6667 12C20.4348 12 22.1305 12.7024 23.3807 13.9526C24.631 15.2029 25.3333 16.8986 25.3333 18.6667C25.3333 20.4348 24.631 22.1305 23.3807 23.3807C22.1305 24.631 20.4348 25.3333 18.6667 25.3333C16.8986 25.3333 15.2029 24.631 13.9526 23.3807C12.7024 22.1305 12 20.4348 12 18.6667C12 16.8986 12.7024 15.2029 13.9526 13.9526C15.2029 12.7024 16.8986 12 18.6667 12ZM17.3333 0C17.687 0 18.0261 0.140476 18.2761 0.390524C18.5262 0.640573 18.6667 0.979711 18.6667 1.33333V2.66667H21.3333C22.0406 2.66667 22.7189 2.94762 23.219 3.44772C23.719 3.94781 24 4.62609 24 5.33333V9.33333H21.3333V5.33333H2.66667V21.3333H9.33333V24H2.66667C1.95942 24 1.28115 23.719 0.781048 23.219C0.280951 22.7189 0 22.0406 0 21.3333V5.33333C0 4.62609 0.280951 3.94781 0.781048 3.44772C1.28115 2.94762 1.95942 2.66667 2.66667 2.66667H5.33333V1.33333C5.33333 0.979711 5.47381 0.640573 5.72386 0.390524C5.97391 0.140476 6.31305 0 6.66667 0C7.02029 0 7.35943 0.140476 7.60948 0.390524C7.85952 0.640573 8 0.979711 8 1.33333V2.66667H16V1.33333C16 0.979711 16.1405 0.640573 16.3905 0.390524C16.6406 0.140476 16.9797 0 17.3333 0ZM18.6667 14.6667C17.6058 14.6667 16.5884 15.0881 15.8382 15.8382C15.0881 16.5884 14.6667 17.6058 14.6667 18.6667C14.6667 19.7275 15.0881 20.7449 15.8382 21.4951C16.5884 22.2452 17.6058 22.6667 18.6667 22.6667C19.7275 22.6667 20.7449 22.2452 21.4951 21.4951C22.2452 20.7449 22.6667 19.7275 22.6667 18.6667C22.6667 17.6058 22.2452 16.5884 21.4951 15.8382C20.7449 15.0881 19.7275 14.6667 18.6667 14.6667ZM18.6667 15.3333C19.0203 15.3333 19.3594 15.4738 19.6095 15.7239C19.8595 15.9739 20 16.313 20 16.6667V17.3333C20.3536 17.3333 20.6928 17.4738 20.9428 17.7239C21.1929 17.9739 21.3333 18.313 21.3333 18.6667C21.3333 19.0203 21.1929 19.3594 20.9428 19.6095C20.6928 19.8595 20.3536 20 20 20H18.6667C18.313 20 17.9739 19.8595 17.7239 19.6095C17.4738 19.3594 17.3333 19.0203 17.3333 18.6667V16.6667C17.3333 16.313 17.4738 15.9739 17.7239 15.7239C17.9739 15.4738 18.313 15.3333 18.6667 15.3333ZM7.33333 14.6667C7.67317 14.667 8.00004 14.7972 8.24716 15.0305C8.49427 15.2638 8.64298 15.5826 8.6629 15.9219C8.68281 16.2611 8.57243 16.5952 8.35431 16.8558C8.13619 17.1164 7.82679 17.2839 7.48933 17.324L7.33333 17.3333H6.66667C6.32683 17.333 5.99996 17.2028 5.75284 16.9695C5.50573 16.7362 5.35702 16.4174 5.3371 16.0781C5.31719 15.7389 5.42757 15.4048 5.64569 15.1442C5.86381 14.8836 6.17321 14.7161 6.51067 14.676L6.66667 14.6667H7.33333ZM10.6667 9.33333C11.0203 9.33333 11.3594 9.47381 11.6095 9.72386C11.8595 9.97391 12 10.313 12 10.6667C12 11.0203 11.8595 11.3594 11.6095 11.6095C11.3594 11.8595 11.0203 12 10.6667 12H6.66667C6.31305 12 5.97391 11.8595 5.72386 11.6095C5.47381 11.3594 5.33333 11.0203 5.33333 10.6667C5.33333 10.313 5.47381 9.97391 5.72386 9.72386C5.97391 9.47381 6.31305 9.33333 6.66667 9.33333H10.6667Z" fill="white"/>
</svg>
