<svg width="40" height="40" viewBox="0 0 40 40" fill="none" xmlns="http://www.w3.org/2000/svg">
<path d="M0 12C0 5.37258 5.37258 0 12 0H28C34.6274 0 40 5.37258 40 12V28C40 34.6274 34.6274 40 28 40H12C5.37258 40 0 34.6274 0 28V12Z" fill="#1A8E46" fill-opacity="0.1"/>
<g clip-path="url(#clip0_1444_4150)">
<path fill-rule="evenodd" clip-rule="evenodd" d="M27.9549 14.259C28.1893 14.4934 28.3209 14.8113 28.3209 15.1427C28.3209 15.4742 28.1893 15.7921 27.9549 16.0265L18.5858 25.3956C18.462 25.5195 18.315 25.6177 18.1532 25.6848C17.9914 25.7518 17.818 25.7863 17.6429 25.7863C17.4677 25.7863 17.2943 25.7518 17.1325 25.6848C16.9708 25.6177 16.8238 25.5195 16.6999 25.3956L12.0449 20.7415C11.9256 20.6262 11.8303 20.4882 11.7648 20.3357C11.6993 20.1832 11.6648 20.0192 11.6634 19.8532C11.6619 19.6873 11.6936 19.5227 11.7564 19.369C11.8193 19.2154 11.9121 19.0758 12.0294 18.9585C12.1468 18.8411 12.2864 18.7483 12.44 18.6855C12.5936 18.6226 12.7582 18.591 12.9242 18.5924C13.0902 18.5939 13.2542 18.6283 13.4067 18.6939C13.5592 18.7594 13.6971 18.8546 13.8124 18.974L17.6424 22.804L26.1866 14.259C26.3027 14.1428 26.4405 14.0507 26.5922 13.9878C26.7439 13.9249 26.9066 13.8926 27.0708 13.8926C27.235 13.8926 27.3976 13.9249 27.5493 13.9878C27.701 14.0507 27.8389 14.1428 27.9549 14.259Z" fill="#1A8E46"/>
</g>
<defs>
<clipPath id="clip0_1444_4150">
<rect width="20" height="20" fill="white" transform="translate(10 10)"/>
</clipPath>
</defs>
</svg>
