<svg width="1440" height="922" viewBox="0 0 1440 922" fill="none" xmlns="http://www.w3.org/2000/svg">
<path d="M107.278 351.601H183.062V257.352H184.234V351.601H260.015V257.352H261.188V351.601H336.972V257.352H338.145V351.601H412.763V257.352H413.936V351.601H489.715V257.352H490.888V351.601H566.672V257.352H567.845V351.601H643.629V257.352H644.802V351.601H719.416V257.352H720.589V351.601H796.373V257.352H797.546V351.601H873.33V257.352H874.503V351.601H949.116V257.352H950.289V351.601H1026.07V257.352H1027.25V351.601H1103.03V257.352H1104.2V351.601H1179.98V257.352H1181.16V351.601H1255.77V257.352H1256.95V351.601H1332.73V257.352H1333.9V351.601H1440V352.773H1333.9V418.128H1440V419.301H1333.9V484.655H1440V485.828H1333.9V551.183H1440V552.355H1333.9V617.71H1440V618.883H1333.9V684.239H1440V685.412H1333.9V750.767H1440V751.939H1333.9V817.292H1440V818.465H1333.9V920.937H1332.73V818.465H1256.95V920.937H1255.77V818.465H1181.16V920.937H1179.98V818.465H1104.2V920.937H1103.03V818.465H1027.25V920.937H1026.07V818.465H950.289V920.937H949.116V818.465H874.503V920.937H873.33V818.465H797.546V920.937H796.373V818.465H720.589V920.937H719.416V818.465H644.802V920.937H643.629V818.465H567.845V920.937H566.672V818.465H490.888V920.937H489.715V818.465H413.936V920.937H412.763V818.465H338.145V920.937H336.972V818.465H261.188V920.937H260.015V818.465H184.234V920.937H183.062V818.465H107.278V920.937H106.105V818.465H0V817.292H106.105V751.939H0V750.767H106.105V685.412H0V684.239H106.105V618.883H0V617.71H106.105V552.355H0V551.183H106.105V485.828H0V484.655H106.105V419.301H0V418.128H106.105V352.773H0V351.601H106.105V257.352H107.278V351.601ZM1256.95 751.939V817.292H1332.73V751.939H1256.95ZM107.278 817.292H183.062V751.939H107.278V817.292ZM184.234 817.292H260.015V751.939H184.234V817.292ZM261.188 817.292H336.972V751.939H261.188V817.292ZM338.145 817.292H412.763V751.939H338.145V817.292ZM413.936 817.292H489.715V751.939H413.936V817.292ZM490.888 817.292H566.672V751.939H490.888V817.292ZM567.845 817.292H643.629V751.939H567.845V817.292ZM644.802 817.292H719.416V751.939H644.802V817.292ZM720.589 817.292H796.373V751.939H720.589V817.292ZM797.546 817.292H873.33V751.939H797.546V817.292ZM874.503 817.292H949.116V751.939H874.503V817.292ZM950.289 817.292H1026.07V751.939H950.289V817.292ZM1027.25 817.292H1103.03V751.939H1027.25V817.292ZM1104.2 817.292H1179.98V751.939H1104.2V817.292ZM1181.16 817.292H1255.77V751.939H1181.16V817.292ZM1256.95 685.412V750.767H1332.73V685.412H1256.95ZM107.278 750.767H183.062V685.412H107.278V750.767ZM184.234 750.767H260.015V685.412H184.234V750.767ZM261.188 750.767H336.972V685.412H261.188V750.767ZM338.145 750.767H412.763V685.412H338.145V750.767ZM413.936 750.767H489.715V685.412H413.936V750.767ZM490.888 750.767H566.672V685.412H490.888V750.767ZM567.845 750.767H643.629V685.412H567.845V750.767ZM644.802 750.767H719.416V685.412H644.802V750.767ZM720.589 750.767H796.373V685.412H720.589V750.767ZM797.546 750.767H873.33V685.412H797.546V750.767ZM874.503 750.767H949.116V685.412H874.503V750.767ZM950.289 750.767H1026.07V685.412H950.289V750.767ZM1027.25 750.767H1103.03V685.412H1027.25V750.767ZM1104.2 750.767H1179.98V685.412H1104.2V750.767ZM1181.16 750.767H1255.77V685.412H1181.16V750.767ZM1256.95 618.883V684.239H1332.73V618.883H1256.95ZM107.278 684.239H183.062V618.883H107.278V684.239ZM184.234 684.239H260.015V618.883H184.234V684.239ZM261.188 684.239H336.972V618.883H261.188V684.239ZM338.145 684.239H412.763V618.883H338.145V684.239ZM413.936 684.239H489.715V618.883H413.936V684.239ZM490.888 684.239H566.672V618.883H490.888V684.239ZM567.845 684.239H643.629V618.883H567.845V684.239ZM644.802 684.239H719.416V618.883H644.802V684.239ZM720.589 684.239H796.373V618.883H720.589V684.239ZM797.546 684.239H873.33V618.883H797.546V684.239ZM874.503 684.239H949.116V618.883H874.503V684.239ZM950.289 684.239H1026.07V618.883H950.289V684.239ZM1027.25 684.239H1103.03V618.883H1027.25V684.239ZM1104.2 684.239H1179.98V618.883H1104.2V684.239ZM1181.16 684.239H1255.77V618.883H1181.16V684.239ZM1256.95 552.355V617.71H1332.73V552.355H1256.95ZM107.278 617.71H183.062V552.355H107.278V617.71ZM184.234 617.71H260.015V552.355H184.234V617.71ZM261.188 617.71H336.972V552.355H261.188V617.71ZM338.145 617.71H412.763V552.355H338.145V617.71ZM413.936 617.71H489.715V552.355H413.936V617.71ZM490.888 617.71H566.672V552.355H490.888V617.71ZM567.845 617.71H643.629V552.355H567.845V617.71ZM644.802 617.71H719.416V552.355H644.802V617.71ZM720.589 617.71H796.373V552.355H720.589V617.71ZM797.546 617.71H873.33V552.355H797.546V617.71ZM874.503 617.71H949.116V552.355H874.503V617.71ZM950.289 617.71H1026.07V552.355H950.289V617.71ZM1027.25 617.71H1103.03V552.355H1027.25V617.71ZM1104.2 617.71H1179.98V552.355H1104.2V617.71ZM1181.16 617.71H1255.77V552.355H1181.16V617.71ZM1256.95 485.828V551.183H1332.73V485.828H1256.95ZM107.278 551.183H183.062V485.828H107.278V551.183ZM184.234 551.183H260.015V485.828H184.234V551.183ZM261.188 551.183H336.972V485.828H261.188V551.183ZM338.145 551.183H412.763V485.828H338.145V551.183ZM413.936 551.183H489.715V485.828H413.936V551.183ZM490.888 551.183H566.672V485.828H490.888V551.183ZM567.845 551.183H643.629V485.828H567.845V551.183ZM644.802 551.183H719.416V485.828H644.802V551.183ZM720.589 551.183H796.373V485.828H720.589V551.183ZM797.546 551.183H873.33V485.828H797.546V551.183ZM874.503 551.183H949.116V485.828H874.503V551.183ZM950.289 551.183H1026.07V485.828H950.289V551.183ZM1027.25 551.183H1103.03V485.828H1027.25V551.183ZM1104.2 551.183H1179.98V485.828H1104.2V551.183ZM1181.16 551.183H1255.77V485.828H1181.16V551.183ZM1256.95 419.301V484.655H1332.73V419.301H1256.95ZM107.278 484.655H183.062V419.301H107.278V484.655ZM184.234 484.655H260.015V419.301H184.234V484.655ZM261.188 484.655H336.972V419.301H261.188V484.655ZM338.145 484.655H412.763V419.301H338.145V484.655ZM413.936 484.655H489.715V419.301H413.936V484.655ZM490.888 484.655H566.672V419.301H490.888V484.655ZM567.845 484.655H643.629V419.301H567.845V484.655ZM644.802 484.655H719.416V419.301H644.802V484.655ZM720.589 484.655H796.373V419.301H720.589V484.655ZM797.546 484.655H873.33V419.301H797.546V484.655ZM874.503 484.655H949.116V419.301H874.503V484.655ZM950.289 484.655H1026.07V419.301H950.289V484.655ZM1027.25 484.655H1103.03V419.301H1027.25V484.655ZM1104.2 484.655H1179.98V419.301H1104.2V484.655ZM1181.16 484.655H1255.77V419.301H1181.16V484.655ZM1256.95 352.773V418.128H1332.73V352.773H1256.95ZM107.278 418.128H183.062V352.773H107.278V418.128ZM184.234 418.128H260.015V352.773H184.234V418.128ZM261.188 418.128H336.972V352.773H261.188V418.128ZM338.145 418.128H412.763V352.773H338.145V418.128ZM413.936 418.128H489.715V352.773H413.936V418.128ZM490.888 418.128H566.672V352.773H490.888V418.128ZM567.845 418.128H643.629V352.773H567.845V418.128ZM644.802 418.128H719.416V352.773H644.802V418.128ZM720.589 418.128H796.373V352.773H720.589V418.128ZM797.546 418.128H873.33V352.773H797.546V418.128ZM874.503 418.128H949.116V352.773H874.503V418.128ZM950.289 418.128H1026.07V352.773H950.289V418.128ZM1027.25 418.128H1103.03V352.773H1027.25V418.128ZM1104.2 418.128H1179.98V352.773H1104.2V418.128ZM1181.16 418.128H1255.77V352.773H1181.16V418.128Z" fill="url(#paint0_radial_1377_698)"/>
<rect opacity="0.5" width="1440" height="922" fill="url(#paint1_linear_1377_698)" fill-opacity="0.5"/>
<defs>
<radialGradient id="paint0_radial_1377_698" cx="0" cy="0" r="1" gradientUnits="userSpaceOnUse" gradientTransform="translate(716.388 1256.28) rotate(180) scale(875.136 715.085)">
<stop stop-color="#B3B3B3"/>
<stop offset="1" stop-color="#D3D3D3" stop-opacity="0.1"/>
</radialGradient>
<linearGradient id="paint1_linear_1377_698" x1="720.114" y1="4.04859e-09" x2="720.039" y2="1020.34" gradientUnits="userSpaceOnUse">
<stop stop-color="#FBF9F6"/>
<stop offset="0.649038" stop-color="#FBF9F6"/>
<stop offset="1" stop-color="#05A65D" stop-opacity="0.6"/>
</linearGradient>
</defs>
</svg>
