<svg width="191" height="44" viewBox="0 0 191 44" fill="none" xmlns="http://www.w3.org/2000/svg">
<path d="M14.519 0.377326C15.0221 -0.126022 15.8372 -0.125529 16.3403 0.377326L18.845 2.88322C18.9706 3.00893 18.9706 3.21303 18.845 3.33875L11.5605 10.6267C11.4348 10.7524 11.2308 10.7524 11.1052 10.6267L8.60048 8.1208C8.09737 7.61745 8.09737 6.80154 8.60048 6.29869L14.519 0.377326Z" fill="#1A8E46"/>
<path d="M15.1972 7.91435C15.3229 7.78864 15.5264 7.78913 15.6521 7.91484L18.8402 11.1045C18.9659 11.2302 18.9664 11.4338 18.8407 11.5596L18.273 12.1275C17.4891 12.9118 16.473 13.3595 15.4441 13.358C14.4152 13.3565 13.3735 12.9054 12.5876 12.1191L12.0184 11.5497C11.8928 11.424 11.8923 11.2204 12.0179 11.0947L15.1972 7.91435Z" fill="#A6DBAB"/>
<path d="M22.2649 6.31259C22.768 6.81594 22.768 7.63234 22.2649 8.13618L19.7582 10.6436C19.6326 10.7693 19.4286 10.7693 19.3024 10.6436L16.1123 7.4524C15.9866 7.32668 15.9866 7.12258 16.1123 6.99638L19.3024 3.80522C19.4281 3.67951 19.6321 3.67951 19.7582 3.80522L22.2644 6.31259H22.2649Z" fill="#1A8E46"/>
<path d="M0.377147 16.3363C-0.125962 15.833 -0.125469 15.0176 0.377147 14.5142L2.88185 12.0083C3.0075 11.8826 3.21151 11.8826 3.33716 12.0083L10.6216 19.2963C10.7473 19.422 10.7473 19.6261 10.6216 19.7518L8.11694 22.2577C7.61383 22.7611 6.79831 22.7611 6.2957 22.2577L0.377147 16.3363Z" fill="#1A8E46"/>
<path d="M7.89857 15.6689C7.77292 15.5432 7.77341 15.3396 7.89907 15.2139L11.0872 12.0242C11.2129 11.8985 11.4164 11.898 11.542 12.0237L12.1097 12.5917C12.8937 13.376 13.3411 14.3926 13.3396 15.4219C13.3382 16.4513 12.8873 17.4935 12.1013 18.2798L11.5322 18.8492C11.4065 18.975 11.203 18.9754 11.0774 18.8497L7.89857 15.6689Z" fill="#A6DBAB"/>
<path d="M6.30284 8.58845C6.80595 8.0851 7.62196 8.0851 8.12557 8.58845L10.6317 11.0963C10.7574 11.222 10.7574 11.4261 10.6317 11.5523L7.44211 14.744C7.31645 14.8697 7.11245 14.8697 6.9863 14.744L3.79666 11.5523C3.67101 11.4266 3.67101 11.2225 3.79666 11.0963L6.30284 8.58894V8.58845Z" fill="#1A8E46"/>
<path d="M16.3302 30.4726C15.8271 30.9759 15.012 30.9754 14.5089 30.4726L12.0042 27.9667C11.8786 27.8409 11.8786 27.6368 12.0042 27.5111L19.2887 20.2232C19.4143 20.0975 19.6184 20.0975 19.744 20.2232L22.2487 22.7291C22.7518 23.2324 22.7518 24.0483 22.2487 24.5512L16.3302 30.4726Z" fill="#1A8E46"/>
<path d="M15.6636 22.9476C15.5379 23.0733 15.3344 23.0728 15.2088 22.9471L12.0206 19.7574C11.8949 19.6317 11.8944 19.4281 12.0201 19.3024L12.5878 18.7344C13.3717 17.9501 14.3878 17.5024 15.4167 17.5039C16.4456 17.5054 17.4873 17.9565 18.2732 18.7428L18.8424 19.3122C18.968 19.4379 18.9685 19.6415 18.8429 19.7672L15.6636 22.9476Z" fill="#A6DBAB"/>
<path d="M8.58218 24.5463C8.07907 24.043 8.07907 23.2266 8.58218 22.7228L11.0889 20.2154C11.2145 20.0897 11.4185 20.0897 11.5447 20.2154L14.7348 23.4065C14.8604 23.5322 14.8604 23.7363 14.7348 23.8626L11.5447 27.0537C11.419 27.1794 11.215 27.1794 11.0889 27.0537L8.58267 24.5463H8.58218Z" fill="#1A8E46"/>
<path d="M30.4735 14.5176C30.9766 15.021 30.9761 15.8364 30.4735 16.3397L27.9688 18.8456C27.8431 18.9713 27.6391 18.9713 27.5134 18.8456L20.229 11.5577C20.1033 11.432 20.1033 11.2279 20.229 11.1022L22.7337 8.59626C23.2368 8.09291 24.0523 8.09291 24.5549 8.59626L30.4735 14.5176Z" fill="#1A8E46"/>
<path d="M22.9396 15.1928C23.0653 15.3185 23.0648 15.5221 22.9392 15.6478L19.751 18.8375C19.6253 18.9632 19.4218 18.9637 19.2962 18.838L18.7285 18.2701C17.9445 17.4857 17.4971 16.4692 17.4986 15.4398C17.5001 14.4104 17.9509 13.3682 18.7369 12.5819L19.306 12.0125C19.4317 11.8868 19.6352 11.8863 19.7608 12.012L22.9396 15.1928Z" fill="#A6DBAB"/>
<path d="M24.5407 22.2654C24.0375 22.7688 23.2215 22.7688 22.7179 22.2654L20.2117 19.7576C20.0861 19.6319 20.0861 19.4278 20.2117 19.3016L23.4014 16.1099C23.527 15.9842 23.731 15.9842 23.8572 16.1099L27.0468 19.3016C27.1725 19.4273 27.1725 19.6314 27.0468 19.7576L24.5407 22.265V22.2654Z" fill="#1A8E46"/>
<path d="M52.8438 13.0393C52.2551 12.4053 51.6814 11.9826 51.1228 11.7712C50.5794 11.5599 50.0284 11.4542 49.4698 11.4542C48.6395 11.4542 47.8847 11.6052 47.2054 11.9071C46.5412 12.1939 45.9675 12.6015 45.4844 13.1299C45.0013 13.6432 44.6239 14.247 44.3522 14.9414C44.0956 15.6359 43.9673 16.3831 43.9673 17.1832C43.9673 18.0437 44.0956 18.8362 44.3522 19.5609C44.6239 20.2855 45.0013 20.912 45.4844 21.4403C45.9675 21.9687 46.5412 22.3838 47.2054 22.6858C47.8847 22.9877 48.6395 23.1387 49.4698 23.1387C50.119 23.1387 50.7454 22.9877 51.3493 22.6858C51.9682 22.3687 52.5419 21.8706 53.0703 21.1912L55.4253 22.8669C54.7006 23.8633 53.8175 24.5879 52.7759 25.0408C51.7342 25.4937 50.6247 25.7201 49.4472 25.7201C48.2093 25.7201 47.0695 25.5238 46.0279 25.1313C45.0013 24.7237 44.1107 24.1576 43.3559 23.433C42.6162 22.6933 42.035 21.8102 41.6123 20.7836C41.1896 19.7571 40.9782 18.6173 40.9782 17.3644C40.9782 16.0812 41.1896 14.9188 41.6123 13.8771C42.035 12.8204 42.6162 11.9222 43.3559 11.1825C44.1107 10.4428 45.0013 9.87666 46.0279 9.48416C47.0695 9.07657 48.2093 8.87277 49.4472 8.87277C50.5341 8.87277 51.538 9.06902 52.4589 9.46152C53.3948 9.83892 54.2629 10.4881 55.0629 11.4089L52.8438 13.0393ZM57.0912 14.4433H59.8085V16.1642H59.8538C60.1557 15.5302 60.586 15.0396 61.1445 14.6923C61.7031 14.3451 62.3447 14.1715 63.0693 14.1715C63.2353 14.1715 63.3939 14.1866 63.5448 14.2168C63.7109 14.247 63.8769 14.2847 64.043 14.33V16.9568C63.8165 16.8964 63.5901 16.8511 63.3637 16.8209C63.1523 16.7756 62.941 16.753 62.7296 16.753C62.0956 16.753 61.5823 16.8737 61.1898 17.1153C60.8124 17.3417 60.518 17.6059 60.3067 17.9078C60.1104 18.2098 59.9746 18.5117 59.8991 18.8136C59.8387 19.1155 59.8085 19.342 59.8085 19.4929V25.3125H57.0912V14.4433ZM67.6682 20.8289C67.7588 21.6441 68.0758 22.2782 68.6193 22.7311C69.1627 23.1839 69.8194 23.4104 70.5893 23.4104C71.2686 23.4104 71.8347 23.2745 72.2876 23.0028C72.7556 22.716 73.1632 22.3612 73.5104 21.9385L75.4578 23.4104C74.8238 24.1954 74.1143 24.7539 73.3293 25.0861C72.5443 25.4182 71.7215 25.5842 70.861 25.5842C70.0458 25.5842 69.2759 25.4484 68.5513 25.1766C67.8267 24.9049 67.2002 24.52 66.6718 24.0218C66.1435 23.5236 65.7208 22.9273 65.4038 22.2329C65.1018 21.5234 64.9509 20.7384 64.9509 19.8779C64.9509 19.0174 65.1018 18.2399 65.4038 17.5455C65.7208 16.836 66.1435 16.2322 66.6718 15.734C67.2002 15.2358 67.8267 14.8509 68.5513 14.5791C69.2759 14.3074 70.0458 14.1715 70.861 14.1715C71.6158 14.1715 72.3027 14.3074 72.9217 14.5791C73.5557 14.8358 74.0916 15.2132 74.5294 15.7113C74.9823 16.2095 75.3295 16.8285 75.571 17.5682C75.8277 18.2928 75.956 19.1306 75.956 20.0817V20.8289H67.6682ZM73.2387 18.791C73.2236 17.9909 72.9745 17.3644 72.4914 16.9115C72.0083 16.4435 71.3366 16.2095 70.4761 16.2095C69.6609 16.2095 69.0118 16.4435 68.5287 16.9115C68.0607 17.3795 67.7739 18.006 67.6682 18.791H73.2387ZM87.1019 23.6821H87.0566C86.6641 24.3463 86.1358 24.8294 85.4715 25.1313C84.8073 25.4333 84.0902 25.5842 83.3203 25.5842C82.4749 25.5842 81.7201 25.4408 81.0559 25.154C80.4068 24.8521 79.8482 24.4445 79.3802 23.9312C78.9122 23.4179 78.5575 22.8141 78.3159 22.1197C78.0744 21.4252 77.9536 20.678 77.9536 19.8779C77.9536 19.0778 78.082 18.3305 78.3386 17.6361C78.5952 16.9417 78.95 16.3378 79.4029 15.8246C79.8709 15.3113 80.4294 14.9112 81.0785 14.6244C81.7277 14.3225 82.4372 14.1715 83.2071 14.1715C83.7204 14.1715 84.1733 14.2244 84.5658 14.33C84.9583 14.4357 85.3055 14.5716 85.6074 14.7376C85.9093 14.9037 86.166 15.0848 86.3773 15.2811C86.5886 15.4622 86.7623 15.6434 86.8981 15.8246H86.9661V8.19344H89.6834V25.3125H87.1019V23.6821ZM80.6709 19.8779C80.6709 20.3006 80.7389 20.7082 80.8747 21.1007C81.0257 21.4932 81.2371 21.8404 81.5088 22.1423C81.7956 22.4442 82.1353 22.6858 82.5278 22.8669C82.9203 23.0481 83.3656 23.1387 83.8638 23.1387C84.362 23.1387 84.8073 23.0481 85.1998 22.8669C85.5923 22.6858 85.9244 22.4442 86.1961 22.1423C86.483 21.8404 86.6943 21.4932 86.8302 21.1007C86.9811 20.7082 87.0566 20.3006 87.0566 19.8779C87.0566 19.4552 86.9811 19.0476 86.8302 18.6551C86.6943 18.2626 86.483 17.9154 86.1961 17.6135C85.9244 17.3115 85.5923 17.07 85.1998 16.8888C84.8073 16.7077 84.362 16.6171 83.8638 16.6171C83.3656 16.6171 82.9203 16.7077 82.5278 16.8888C82.1353 17.07 81.7956 17.3115 81.5088 17.6135C81.2371 17.9154 81.0257 18.2626 80.8747 18.6551C80.7389 19.0476 80.6709 19.4552 80.6709 19.8779ZM100.867 12.7223C100.565 12.2845 100.157 11.9675 99.6442 11.7712C99.146 11.5599 98.6176 11.4542 98.0591 11.4542C97.727 11.4542 97.4024 11.492 97.0854 11.5674C96.7835 11.6429 96.5042 11.7637 96.2475 11.9297C96.006 12.0958 95.8098 12.3147 95.6588 12.5864C95.5078 12.8431 95.4324 13.1525 95.4324 13.5148C95.4324 14.0583 95.6211 14.4734 95.9985 14.7603C96.3759 15.0471 96.8438 15.2962 97.4024 15.5075C97.961 15.7189 98.5724 15.9227 99.2366 16.1189C99.9008 16.3152 100.512 16.5869 101.071 16.9341C101.629 17.2813 102.097 17.7418 102.475 18.3154C102.852 18.8891 103.041 19.6514 103.041 20.6025C103.041 21.463 102.882 22.2178 102.565 22.8669C102.248 23.501 101.818 24.0293 101.275 24.452C100.746 24.8747 100.127 25.1917 99.4177 25.4031C98.7082 25.6144 97.961 25.7201 97.176 25.7201C96.1796 25.7201 95.221 25.554 94.3001 25.2219C93.3793 24.8898 92.5867 24.3312 91.9225 23.5462L94.0737 21.463C94.4209 21.9913 94.8738 22.4065 95.4324 22.7084C96.006 22.9952 96.6099 23.1387 97.2439 23.1387C97.576 23.1387 97.9081 23.0934 98.2402 23.0028C98.5724 22.9122 98.8743 22.7763 99.146 22.5952C99.4177 22.414 99.6366 22.1876 99.8027 21.9159C99.9688 21.629 100.052 21.3045 100.052 20.9422C100.052 20.3534 99.8631 19.9005 99.4857 19.5835C99.1083 19.2665 98.6403 19.0023 98.0817 18.791C97.5232 18.5645 96.9118 18.3532 96.2475 18.1569C95.5833 17.9607 94.9719 17.6965 94.4134 17.3644C93.8548 17.0172 93.3868 16.5643 93.0094 16.0057C92.632 15.4321 92.4433 14.6697 92.4433 13.7186C92.4433 12.8883 92.6094 12.1713 92.9415 11.5674C93.2887 10.9636 93.734 10.4654 94.2775 10.0729C94.8361 9.66532 95.4701 9.36339 96.1796 9.16714C96.8891 8.97089 97.6137 8.87277 98.3535 8.87277C99.1988 8.87277 100.014 9.00109 100.799 9.25772C101.599 9.51435 102.316 9.93705 102.95 10.5258L100.867 12.7223ZM107.937 20.8289C108.028 21.6441 108.345 22.2782 108.888 22.7311C109.431 23.1839 110.088 23.4104 110.858 23.4104C111.537 23.4104 112.103 23.2745 112.556 23.0028C113.024 22.716 113.432 22.3612 113.779 21.9385L115.727 23.4104C115.093 24.1954 114.383 24.7539 113.598 25.0861C112.813 25.4182 111.99 25.5842 111.13 25.5842C110.315 25.5842 109.545 25.4484 108.82 25.1766C108.095 24.9049 107.469 24.52 106.941 24.0218C106.412 23.5236 105.99 22.9273 105.673 22.2329C105.371 21.5234 105.22 20.7384 105.22 19.8779C105.22 19.0174 105.371 18.2399 105.673 17.5455C105.99 16.836 106.412 16.2322 106.941 15.734C107.469 15.2358 108.095 14.8509 108.82 14.5791C109.545 14.3074 110.315 14.1715 111.13 14.1715C111.885 14.1715 112.571 14.3074 113.19 14.5791C113.824 14.8358 114.36 15.2132 114.798 15.7113C115.251 16.2095 115.598 16.8285 115.84 17.5682C116.096 18.2928 116.225 19.1306 116.225 20.0817V20.8289H107.937ZM113.507 18.791C113.492 17.9909 113.243 17.3644 112.76 16.9115C112.277 16.4435 111.605 16.2095 110.745 16.2095C109.93 16.2095 109.28 16.4435 108.797 16.9115C108.329 17.3795 108.043 18.006 107.937 18.791H113.507ZM118.766 14.4433H121.483V16.1642H121.528C121.83 15.5302 122.261 15.0396 122.819 14.6923C123.378 14.3451 124.019 14.1715 124.744 14.1715C124.91 14.1715 125.068 14.1866 125.219 14.2168C125.386 14.247 125.552 14.2847 125.718 14.33V16.9568C125.491 16.8964 125.265 16.8511 125.038 16.8209C124.827 16.7756 124.616 16.753 124.404 16.753C123.77 16.753 123.257 16.8737 122.864 17.1153C122.487 17.3417 122.193 17.6059 121.981 17.9078C121.785 18.2098 121.649 18.5117 121.574 18.8136C121.513 19.1155 121.483 19.342 121.483 19.4929V25.3125H118.766V14.4433ZM126.095 14.4433H129.062L131.96 22.0517H132.005L134.926 14.4433H137.712L133.432 25.3125H130.533L126.095 14.4433Z" fill="white"/>
<path d="M141.059 29.035C141.304 28.7903 141.7 28.7905 141.945 29.035L143.163 30.2535C143.224 30.3146 143.224 30.4138 143.163 30.4749L139.621 34.0185C139.56 34.0797 139.461 34.0797 139.399 34.0185L138.182 32.8001C137.937 32.5554 137.937 32.1587 138.182 31.9141L141.059 29.035Z" fill="#1A8E46"/>
<path d="M141.389 32.702C141.45 32.6408 141.549 32.6411 141.61 32.7022L143.16 34.2531C143.221 34.3142 143.222 34.4132 143.161 34.4744L142.885 34.7505C142.503 35.1319 142.009 35.3495 141.509 35.3488C141.009 35.3481 140.502 35.1288 140.12 34.7464L139.844 34.4696C139.782 34.4084 139.782 34.3094 139.843 34.2483L141.389 32.702Z" fill="#A6DBAB"/>
<path d="M144.826 31.9212C145.07 32.166 145.07 32.5629 144.826 32.8079L143.607 34.0271C143.546 34.0882 143.447 34.0882 143.385 34.0271L141.834 32.4754C141.773 32.4143 141.773 32.3151 141.834 32.2537L143.385 30.7021C143.446 30.641 143.546 30.641 143.607 30.7021L144.826 31.9212H144.826Z" fill="#1A8E46"/>
<path d="M134.183 36.7948C133.939 36.55 133.939 36.1535 134.183 35.9088L135.401 34.6904C135.462 34.6292 135.561 34.6292 135.623 34.6904L139.164 38.234C139.226 38.2951 139.226 38.3943 139.164 38.4555L137.947 39.6739C137.702 39.9186 137.305 39.9186 137.061 39.6739L134.183 36.7948Z" fill="#1A8E46"/>
<path d="M137.841 36.4705C137.779 36.4093 137.78 36.3103 137.841 36.2492L139.391 34.6983C139.452 34.6372 139.551 34.6369 139.612 34.6981L139.888 34.9742C140.269 35.3556 140.487 35.8499 140.486 36.3504C140.485 36.8509 140.266 37.3576 139.884 37.74L139.607 38.0168C139.546 38.0779 139.447 38.0782 139.386 38.0171L137.841 36.4705Z" fill="#A6DBAB"/>
<path d="M137.065 33.0273C137.309 32.7826 137.706 32.7826 137.951 33.0273L139.17 34.2467C139.231 34.3078 139.231 34.4071 139.17 34.4684L137.619 36.0203C137.558 36.0814 137.458 36.0814 137.397 36.0203L135.846 34.4684C135.785 34.4073 135.785 34.3081 135.846 34.2467L137.065 33.0275V33.0273Z" fill="#1A8E46"/>
<path d="M141.94 43.67C141.695 43.9147 141.299 43.9145 141.054 43.67L139.837 42.4515C139.775 42.3904 139.775 42.2912 139.837 42.2301L143.378 38.6865C143.439 38.6253 143.539 38.6253 143.6 38.6865L144.818 39.9049C145.062 40.1496 145.062 40.5464 144.818 40.7909L141.94 43.67Z" fill="#1A8E46"/>
<path d="M141.616 40.0101C141.555 40.0713 141.456 40.071 141.395 40.0099L139.844 38.459C139.783 38.3979 139.783 38.2989 139.844 38.2377L140.12 37.9616C140.501 37.5802 140.995 37.3626 141.496 37.3633C141.996 37.364 142.502 37.5833 142.885 37.9657L143.161 38.2425C143.222 38.3037 143.223 38.4027 143.161 38.4638L141.616 40.0101Z" fill="#A6DBAB"/>
<path d="M138.173 40.7845C137.928 40.5397 137.928 40.1428 138.173 39.8978L139.392 38.6787C139.453 38.6175 139.552 38.6175 139.613 38.6787L141.164 40.2303C141.225 40.2914 141.225 40.3906 141.164 40.452L139.613 42.0036C139.552 42.0648 139.453 42.0648 139.392 42.0036L138.173 40.7845H138.173Z" fill="#1A8E46"/>
<path d="M148.817 35.9103C149.061 36.1551 149.061 36.5515 148.817 36.7963L147.599 38.0147C147.538 38.0758 147.439 38.0758 147.377 38.0147L143.836 34.4711C143.774 34.41 143.774 34.3108 143.836 34.2496L145.053 33.0312C145.298 32.7865 145.695 32.7865 145.939 33.0312L148.817 35.9103Z" fill="#1A8E46"/>
<path d="M145.154 36.2408C145.215 36.3019 145.214 36.4009 145.153 36.462L143.603 38.0129C143.542 38.074 143.443 38.0743 143.382 38.0131L143.106 37.737C142.725 37.3556 142.507 36.8614 142.508 36.3608C142.509 35.8603 142.728 35.3536 143.11 34.9713L143.387 34.6944C143.448 34.6333 143.547 34.633 143.608 34.6942L145.154 36.2408Z" fill="#A6DBAB"/>
<path d="M145.932 39.6755C145.687 39.9203 145.291 39.9203 145.046 39.6755L143.827 38.4562C143.766 38.395 143.766 38.2958 143.827 38.2344L145.378 36.6826C145.439 36.6214 145.538 36.6214 145.6 36.6826L147.151 38.2344C147.212 38.2956 147.212 38.3948 147.151 38.4562L145.932 39.6753V39.6755Z" fill="#1A8E46"/>
<path d="M158.494 33.7074C157.343 33.7074 156.223 34.1946 156.161 35.4906H157.52C157.571 35.0654 157.914 34.8686 158.494 34.8686C159.075 34.8686 159.345 35.1175 159.345 35.5218V35.8327H157.872C156.732 35.8327 155.965 36.2994 155.965 37.2635C155.965 38.2276 156.68 38.9016 157.945 38.9016C158.505 38.9016 158.972 38.7254 159.345 38.4868V38.7772H160.682V35.5214C160.682 34.2669 159.729 33.707 158.495 33.707L158.494 33.7074ZM158.11 37.7925C157.467 37.7925 157.26 37.5127 157.26 37.2532C157.26 37.0355 157.426 36.8383 157.841 36.8383H159.344V37.3982C158.888 37.6989 158.545 37.7922 158.11 37.7922L158.11 37.7925Z" fill="white"/>
<path d="M161.776 33.832V38.7777H163.135V33.832H161.776Z" fill="white"/>
<path d="M169.929 38.7794H171.682L169.505 35.8868L171.443 33.8337H169.722L167.742 35.9591V31.418H167.067C166.69 31.418 166.384 31.7238 166.384 32.101V38.7794H167.742V37.7426L168.572 36.8718L169.93 38.7794H169.929Z" fill="white"/>
<path d="M172.336 33.832V38.7777H173.694V33.832H172.336Z" fill="white"/>
<path d="M175.852 37.0685L174.598 37.0582C174.701 38.4992 175.8 38.9038 176.889 38.9038C178.143 38.9038 179.097 38.3645 179.097 37.2656C179.097 36.3118 178.382 35.9593 177.615 35.8246L176.723 35.6796C176.246 35.5966 176.111 35.3789 176.111 35.1924C176.111 34.9537 176.36 34.7775 176.879 34.7775C177.356 34.7775 177.781 34.9225 177.812 35.3686H179.066C178.952 33.9481 177.77 33.6992 176.879 33.6992C175.624 33.6992 174.764 34.3109 174.764 35.3271C174.764 36.2603 175.5 36.6543 176.226 36.7787L177.294 36.9653C177.636 37.0273 177.802 37.1933 177.802 37.3904C177.802 37.6705 177.439 37.8053 176.92 37.8053C176.34 37.8053 175.935 37.629 175.852 37.0691L175.852 37.0685Z" fill="white"/>
<path d="M182.145 33.7074C180.994 33.7074 179.874 34.1946 179.812 35.4906H181.17C181.222 35.0654 181.564 34.8686 182.145 34.8686C182.726 34.8686 182.995 35.1175 182.995 35.5218V35.8327H181.523C180.383 35.8327 179.615 36.2994 179.615 37.2635C179.615 38.2276 180.331 38.9016 181.596 38.9016C182.156 38.9016 182.622 38.7254 182.995 38.4868V38.7772H184.333V35.5214C184.333 34.2669 183.379 33.707 182.145 33.707L182.145 33.7074ZM181.761 37.7925C181.118 37.7925 180.911 37.5127 180.911 37.2532C180.911 37.0355 181.077 36.8383 181.492 36.8383H182.995V37.3982C182.539 37.6989 182.197 37.7922 181.761 37.7922V37.7925Z" fill="white"/>
<path d="M188.148 33.7109C187.588 33.7109 187.122 33.8872 186.717 34.2088V33.8354H185.359V38.7811H186.714V36.0814C186.714 35.4552 187.221 34.9478 187.847 34.9478C188.474 34.9478 188.981 35.4552 188.981 36.0814V38.7811H190.336V36.0958C190.336 34.6442 189.465 33.7113 188.148 33.7113V33.7109Z" fill="white"/>
<path d="M153.699 33.832V39.1405C153.699 39.8277 153.475 40.038 152.727 40.1027H152.665V41.2868H152.835V41.2861C154.593 41.2498 155.057 40.442 155.057 38.9643V33.832H153.699Z" fill="white"/>
<path d="M162.46 31.418H163.135V32.7764H161.776V32.1023C161.776 31.7244 162.083 31.418 162.46 31.418Z" fill="white"/>
<path d="M173.02 31.418H173.694V32.7764H172.336V32.1023C172.336 31.7244 172.643 31.418 173.02 31.418Z" fill="white"/>
<path d="M154.383 31.418H155.057V32.7764H153.699V32.1023C153.699 31.7244 154.006 31.418 154.383 31.418Z" fill="white"/>
<path d="M60.1797 43.3061L61.6882 34.3061H62.9325L62.7578 35.3672H62.8643C62.9609 35.2308 63.0916 35.0732 63.2564 34.8942C63.424 34.7152 63.6442 34.5589 63.9169 34.4254C64.1896 34.2891 64.5291 34.2209 64.9354 34.2209C65.4638 34.2209 65.9112 34.3544 66.2777 34.6214C66.6442 34.8885 66.9055 35.2734 67.0618 35.7763C67.218 36.2791 67.2379 36.8842 67.1214 37.5916C67.005 38.299 66.7862 38.9055 66.4652 39.4112C66.1442 39.9141 65.755 40.3018 65.2976 40.5746C64.843 40.8445 64.3501 40.9794 63.8189 40.9794C63.4212 40.9794 63.1072 40.9126 62.8771 40.7791C62.6499 40.6456 62.4808 40.4893 62.37 40.3104C62.2592 40.1314 62.1754 39.9723 62.1186 39.8331H62.0419L61.4624 43.3061H60.1797ZM62.3913 37.5788C62.3175 38.0391 62.3175 38.4425 62.3913 38.7891C62.4652 39.1357 62.6129 39.407 62.8345 39.603C63.0589 39.7962 63.3544 39.8928 63.7209 39.8928C64.1016 39.8928 64.4354 39.7919 64.7223 39.5902C65.0092 39.3857 65.2464 39.1087 65.4339 38.7592C65.6243 38.4098 65.7564 38.0163 65.8303 37.5788C65.9013 37.147 65.8999 36.7592 65.826 36.4155C65.755 36.0717 65.6087 35.8004 65.3871 35.6016C65.1655 35.4027 64.8629 35.3033 64.4794 35.3033C64.1072 35.3033 63.7777 35.3984 63.4908 35.5888C63.2067 35.7791 62.9709 36.0447 62.7834 36.3857C62.5959 36.7266 62.4652 37.1243 62.3913 37.5788ZM70.7894 40.9837C70.1673 40.9837 69.6474 40.8416 69.2298 40.5575C68.8121 40.2706 68.5181 39.87 68.3477 39.3558C68.18 38.8388 68.1516 38.2379 68.2624 37.5533C68.3704 36.8828 68.5877 36.2976 68.9144 35.7976C69.244 35.2976 69.6559 34.9098 70.1502 34.6342C70.6474 34.3587 71.1999 34.2209 71.8079 34.2209C72.43 34.2209 72.9485 34.3643 73.3633 34.6513C73.7809 34.9382 74.0749 35.3402 74.2454 35.8572C74.4158 36.3743 74.4457 36.9766 74.3349 37.6641C74.2269 38.3288 74.0067 38.9112 73.6744 39.4112C73.3448 39.9084 72.9329 40.2947 72.4386 40.5703C71.9442 40.8459 71.3945 40.9837 70.7894 40.9837ZM70.8619 39.9141C71.271 39.9141 71.6275 39.8061 71.9315 39.5902C72.2383 39.3743 72.4883 39.0874 72.6815 38.7294C72.8746 38.3714 73.0067 37.9794 73.0778 37.5533C73.1431 37.1413 73.1417 36.7649 73.0735 36.424C73.0082 36.0803 72.8661 35.8047 72.6474 35.5973C72.4286 35.3899 72.1246 35.2862 71.7354 35.2862C71.3263 35.2862 70.967 35.3956 70.6573 35.6143C70.3505 35.8303 70.1005 36.1186 69.9073 36.4794C69.717 36.8402 69.5877 37.2337 69.5195 37.6598C69.4542 38.0689 69.4542 38.4453 69.5195 38.7891C69.5849 39.13 69.7269 39.4027 69.9457 39.6072C70.1644 39.8118 70.4698 39.9141 70.8619 39.9141ZM76.4528 40.8516L75.6175 34.3061H76.9343L77.4158 39.1129H77.4798L79.5678 34.3061H80.8846L81.3619 39.0916H81.4258L83.5011 34.3061H84.8178L81.805 40.8516H80.5053L79.9599 36.1257H79.8619L77.7482 40.8516H76.4528ZM87.5408 40.9837C86.8988 40.9837 86.3675 40.8459 85.9471 40.5703C85.5295 40.2919 85.2369 39.9013 85.0692 39.3984C84.9016 38.8928 84.8746 38.3004 84.9883 37.6214C85.0991 36.951 85.3221 36.3601 85.6573 35.8487C85.9925 35.3374 86.4102 34.9382 86.9102 34.6513C87.413 34.3643 87.9684 34.2209 88.5763 34.2209C88.9457 34.2209 89.2937 34.282 89.6204 34.4041C89.9499 34.5263 90.2298 34.718 90.4599 34.9794C90.69 35.2408 90.8491 35.5803 90.9371 35.9979C91.0281 36.4126 91.0252 36.9169 90.9286 37.5107L90.8562 37.9624H85.6488L85.7979 37.0078H89.7525C89.8121 36.6726 89.7965 36.3757 89.7056 36.1172C89.6147 35.8558 89.4585 35.6499 89.2369 35.4993C89.0181 35.3487 88.7425 35.2734 88.4102 35.2734C88.0692 35.2734 87.7511 35.3629 87.4556 35.5419C87.1602 35.7209 86.913 35.9496 86.7141 36.228C86.5181 36.5036 86.3945 36.7876 86.3434 37.0803L86.1942 37.9538C86.1204 38.4311 86.1332 38.8146 86.2326 39.1044C86.3349 39.3942 86.5138 39.6044 86.7695 39.7351C87.0252 39.8658 87.3448 39.9311 87.7283 39.9311C87.9755 39.9311 88.2042 39.897 88.4144 39.8288C88.6275 39.7578 88.8164 39.6541 88.9812 39.5178C89.146 39.3786 89.2837 39.2053 89.3945 38.9979L90.5621 39.2152C90.4059 39.5703 90.1815 39.8814 89.8888 40.1484C89.5962 40.4126 89.2511 40.6186 88.8533 40.7663C88.4585 40.9112 88.021 40.9837 87.5408 40.9837ZM91.8033 40.8516L92.8942 34.3061H94.1257L93.951 35.3459H94.0192C94.1953 34.9936 94.4524 34.7166 94.7905 34.5149C95.1286 34.3104 95.4893 34.2081 95.8729 34.2081C95.9553 34.2081 96.049 34.2109 96.1541 34.2166C96.2592 34.2195 96.3445 34.2266 96.4098 34.2379L96.2053 35.4567C96.157 35.4425 96.0689 35.4268 95.9411 35.4098C95.8132 35.3899 95.6811 35.38 95.5447 35.38C95.2464 35.38 94.9695 35.4439 94.7138 35.5717C94.4581 35.6967 94.2436 35.8714 94.0703 36.0959C93.897 36.3175 93.7848 36.5703 93.7337 36.8544L93.0774 40.8516H91.8033ZM99.0018 40.9837C98.3597 40.9837 97.8285 40.8459 97.408 40.5703C96.9904 40.2919 96.6978 39.9013 96.5302 39.3984C96.3626 38.8928 96.3356 38.3004 96.4492 37.6214C96.56 36.951 96.783 36.3601 97.1183 35.8487C97.4535 35.3374 97.8711 34.9382 98.3711 34.6513C98.8739 34.3643 99.4293 34.2209 100.037 34.2209C100.407 34.2209 100.755 34.282 101.081 34.4041C101.411 34.5263 101.691 34.718 101.921 34.9794C102.151 35.2408 102.31 35.5803 102.398 35.9979C102.489 36.4126 102.486 36.9169 102.39 37.5107L102.317 37.9624H97.1097L97.2589 37.0078H101.213C101.273 36.6726 101.257 36.3757 101.167 36.1172C101.076 35.8558 100.919 35.6499 100.698 35.4993C100.479 35.3487 100.203 35.2734 99.8711 35.2734C99.5302 35.2734 99.212 35.3629 98.9165 35.5419C98.6211 35.7209 98.3739 35.9496 98.1751 36.228C97.979 36.5036 97.8555 36.7876 97.8043 37.0803L97.6552 37.9538C97.5813 38.4311 97.5941 38.8146 97.6935 39.1044C97.7958 39.3942 97.9748 39.6044 98.2305 39.7351C98.4862 39.8658 98.8058 39.9311 99.1893 39.9311C99.4364 39.9311 99.6651 39.897 99.8754 39.8288C100.088 39.7578 100.277 39.6541 100.442 39.5178C100.607 39.3786 100.745 39.2053 100.855 38.9979L102.023 39.2152C101.867 39.5703 101.642 39.8814 101.35 40.1484C101.057 40.4126 100.712 40.6186 100.314 40.7663C99.9194 40.9112 99.4819 40.9837 99.0018 40.9837ZM105.706 40.9794C105.175 40.9794 104.724 40.8445 104.355 40.5746C103.989 40.3018 103.729 39.9141 103.575 39.4112C103.425 38.9055 103.408 38.299 103.524 37.5916C103.643 36.8842 103.864 36.2791 104.185 35.7763C104.506 35.2734 104.895 34.8885 105.352 34.6214C105.81 34.3544 106.303 34.2209 106.831 34.2209C107.237 34.2209 107.553 34.2891 107.777 34.4254C108.004 34.5589 108.172 34.7152 108.28 34.8942C108.388 35.0732 108.469 35.2308 108.523 35.3672H108.595L109.136 32.1243H110.411L108.962 40.8516H107.717L107.892 39.8331H107.786C107.686 39.9723 107.548 40.1314 107.372 40.3104C107.199 40.4893 106.977 40.6456 106.707 40.7791C106.438 40.9126 106.104 40.9794 105.706 40.9794ZM106.136 39.8928C106.503 39.8928 106.831 39.7962 107.121 39.603C107.413 39.407 107.656 39.1357 107.849 38.7891C108.045 38.4425 108.182 38.0391 108.259 37.5788C108.335 37.1243 108.334 36.7266 108.254 36.3857C108.175 36.0447 108.021 35.7791 107.794 35.5888C107.567 35.3984 107.267 35.3033 106.895 35.3033C106.511 35.3033 106.178 35.4027 105.893 35.6016C105.609 35.8004 105.376 36.0717 105.195 36.4155C105.016 36.7592 104.891 37.147 104.82 37.5788C104.746 38.0163 104.743 38.4098 104.811 38.7592C104.879 39.1087 105.023 39.3857 105.241 39.5902C105.46 39.7919 105.759 39.8928 106.136 39.8928ZM114.054 40.8516L115.503 32.1243H116.777L116.244 35.3672H116.321C116.418 35.2308 116.55 35.0732 116.717 34.8942C116.888 34.7152 117.108 34.5589 117.378 34.4254C117.648 34.2891 117.986 34.2209 118.392 34.2209C118.92 34.2209 119.369 34.3544 119.739 34.6214C120.108 34.8885 120.369 35.2734 120.523 35.7763C120.676 36.2791 120.695 36.8842 120.578 37.5916C120.462 38.299 120.243 38.9055 119.922 39.4112C119.604 39.9141 119.216 40.3018 118.759 40.5746C118.301 40.8445 117.808 40.9794 117.28 40.9794C116.882 40.9794 116.568 40.9126 116.338 40.7791C116.111 40.6456 115.94 40.4893 115.827 40.3104C115.716 40.1314 115.632 39.9723 115.575 39.8331H115.469L115.298 40.8516H114.054ZM115.848 37.5788C115.774 38.0391 115.774 38.4425 115.848 38.7891C115.925 39.1357 116.074 39.407 116.295 39.603C116.52 39.7962 116.814 39.8928 117.178 39.8928C117.558 39.8928 117.893 39.7919 118.183 39.5902C118.473 39.3857 118.712 39.1087 118.899 38.7592C119.087 38.4098 119.217 38.0163 119.291 37.5788C119.359 37.147 119.358 36.7592 119.287 36.4155C119.216 36.0717 119.068 35.8004 118.844 35.6016C118.622 35.4027 118.32 35.3033 117.936 35.3033C117.567 35.3033 117.239 35.3984 116.952 35.5888C116.665 35.7791 116.428 36.0447 116.24 36.3857C116.053 36.7266 115.922 37.1243 115.848 37.5788ZM121.646 43.3061C121.452 43.3061 121.281 43.2905 121.13 43.2592C120.979 43.2308 120.867 43.1996 120.793 43.1655L121.279 42.1214C121.504 42.1839 121.704 42.2081 121.88 42.1939C122.059 42.1797 122.227 42.1058 122.383 41.9723C122.539 41.8388 122.698 41.6286 122.86 41.3416L123.099 40.9112L121.816 34.3061H123.129L123.938 39.3984H124.006L126.512 34.3061H127.931L124.006 41.7166C123.822 42.0689 123.612 42.3615 123.376 42.5945C123.143 42.8303 122.881 43.0078 122.592 43.1271C122.305 43.2464 121.989 43.3061 121.646 43.3061Z" fill="#0D9C55"/>
</svg>
