<svg width="58" height="58" viewBox="0 0 58 58" fill="none" xmlns="http://www.w3.org/2000/svg">
<rect width="58" height="58" rx="12" fill="url(#paint0_linear_1628_5221)"/>
<g clip-path="url(#clip0_1628_5221)">
<path d="M38.3334 18.334C39.3942 18.334 40.4116 18.7554 41.1618 19.5056C41.9119 20.2557 42.3334 21.2731 42.3334 22.334V35.6673C42.3334 36.7282 41.9119 37.7456 41.1618 38.4957C40.4116 39.2459 39.3942 39.6673 38.3334 39.6673H19.6667C18.6058 39.6673 17.5884 39.2459 16.8383 38.4957C16.0881 37.7456 15.6667 36.7282 15.6667 35.6673V22.334C15.6667 21.2731 16.0881 20.2557 16.8383 19.5056C17.5884 18.7554 18.6058 18.334 19.6667 18.334H38.3334ZM39.6667 26.334H18.3334V35.6673C18.3334 35.9939 18.4533 36.3091 18.6703 36.5531C18.8873 36.7972 19.1864 36.9531 19.5107 36.9913L19.6667 37.0007H38.3334C38.6599 37.0006 38.9751 36.8807 39.2192 36.6637C39.4632 36.4467 39.6191 36.1477 39.6574 35.8233L39.6667 35.6673V26.334ZM35.6667 30.334C36.0065 30.3344 36.3334 30.4645 36.5805 30.6978C36.8276 30.9311 36.9763 31.2499 36.9962 31.5892C37.0162 31.9284 36.9058 32.2625 36.6877 32.5231C36.4695 32.7837 36.1601 32.9512 35.8227 32.9913L35.6667 33.0007H31.6667C31.3268 33.0003 31 32.8701 30.7529 32.6369C30.5057 32.4036 30.357 32.0847 30.3371 31.7455C30.3172 31.4062 30.4276 31.0721 30.6457 30.8115C30.8638 30.5509 31.1732 30.3835 31.5107 30.3433L31.6667 30.334H35.6667ZM38.3334 21.0007H19.6667C19.3131 21.0007 18.9739 21.1411 18.7239 21.3912C18.4738 21.6412 18.3334 21.9804 18.3334 22.334V23.6673H39.6667V22.334C39.6667 21.9804 39.5262 21.6412 39.2762 21.3912C39.0261 21.1411 38.687 21.0007 38.3334 21.0007Z" fill="white"/>
</g>
<defs>
<linearGradient id="paint0_linear_1628_5221" x1="3.5" y1="4.5" x2="54.5" y2="54.5" gradientUnits="userSpaceOnUse">
<stop stop-color="#A551F5" stop-opacity="0.8"/>
<stop offset="1" stop-color="#9538EC"/>
</linearGradient>
<clipPath id="clip0_1628_5221">
<rect width="32" height="32" fill="white" transform="translate(13 13)"/>
</clipPath>
</defs>
</svg>
