<svg width="191" height="44" viewBox="0 0 191 44" fill="none" xmlns="http://www.w3.org/2000/svg">
<path d="M14.519 0.377326C15.0221 -0.126022 15.8372 -0.125529 16.3403 0.377326L18.845 2.88322C18.9706 3.00893 18.9706 3.21303 18.845 3.33875L11.5605 10.6267C11.4348 10.7524 11.2308 10.7524 11.1052 10.6267L8.60047 8.1208C8.09736 7.61745 8.09736 6.80154 8.60047 6.29869L14.519 0.377326Z" fill="#1A8E46"/>
<path d="M15.1972 7.91435C15.3229 7.78864 15.5264 7.78913 15.6521 7.91484L18.8402 11.1045C18.9659 11.2302 18.9664 11.4338 18.8407 11.5596L18.273 12.1275C17.4891 12.9118 16.473 13.3595 15.4441 13.358C14.4152 13.3565 13.3735 12.9054 12.5876 12.1191L12.0184 11.5497C11.8928 11.424 11.8923 11.2204 12.0179 11.0947L15.1972 7.91435Z" fill="#A6DBAB"/>
<path d="M22.2649 6.31259C22.768 6.81594 22.768 7.63234 22.2649 8.13618L19.7582 10.6436C19.6326 10.7693 19.4286 10.7693 19.3024 10.6436L16.1123 7.4524C15.9866 7.32668 15.9866 7.12258 16.1123 6.99638L19.3024 3.80522C19.4281 3.67951 19.6321 3.67951 19.7582 3.80522L22.2644 6.31259H22.2649Z" fill="#1A8E46"/>
<path d="M0.377147 16.3383C-0.125962 15.835 -0.125469 15.0195 0.377147 14.5162L2.88185 12.0103C3.0075 11.8846 3.21151 11.8846 3.33716 12.0103L10.6216 19.2982C10.7473 19.424 10.7473 19.6281 10.6216 19.7538L8.11694 22.2597C7.61383 22.763 6.79831 22.763 6.2957 22.2597L0.377147 16.3383Z" fill="#1A8E46"/>
<path d="M7.89857 15.6689C7.77292 15.5432 7.77341 15.3396 7.89907 15.2139L11.0872 12.0242C11.2129 11.8985 11.4164 11.898 11.542 12.0237L12.1097 12.5917C12.8937 13.376 13.3411 14.3926 13.3396 15.4219C13.3382 16.4513 12.8873 17.4935 12.1013 18.2798L11.5322 18.8492C11.4065 18.975 11.203 18.9754 11.0774 18.8497L7.89857 15.6689Z" fill="#A6DBAB"/>
<path d="M6.30285 8.5865C6.80596 8.08315 7.62197 8.08315 8.12557 8.5865L10.6318 11.0944C10.7574 11.2201 10.7574 11.4242 10.6318 11.5504L7.44211 14.742C7.31646 14.8677 7.11246 14.8677 6.98631 14.742L3.79667 11.5504C3.67102 11.4247 3.67102 11.2206 3.79667 11.0944L6.30285 8.58699V8.5865Z" fill="#1A8E46"/>
<path d="M16.3302 30.4726C15.827 30.9759 15.012 30.9754 14.5089 30.4726L12.0042 27.9667C11.8786 27.8409 11.8786 27.6368 12.0042 27.5111L19.2887 20.2232C19.4143 20.0975 19.6183 20.0975 19.744 20.2232L22.2487 22.7291C22.7518 23.2324 22.7518 24.0483 22.2487 24.5512L16.3302 30.4726Z" fill="#1A8E46"/>
<path d="M15.6636 22.9476C15.5379 23.0733 15.3344 23.0728 15.2088 22.9471L12.0206 19.7574C11.8949 19.6317 11.8944 19.4281 12.0201 19.3024L12.5878 18.7344C13.3717 17.9501 14.3878 17.5024 15.4167 17.5039C16.4456 17.5054 17.4873 17.9565 18.2732 18.7428L18.8424 19.3122C18.968 19.4379 18.9685 19.6415 18.8429 19.7672L15.6636 22.9476Z" fill="#A6DBAB"/>
<path d="M8.58218 24.5444C8.07907 24.041 8.07907 23.2246 8.58218 22.7208L11.0889 20.2134C11.2145 20.0877 11.4185 20.0877 11.5447 20.2134L14.7348 23.4046C14.8604 23.5303 14.8604 23.7344 14.7348 23.8606L11.5447 27.0518C11.419 27.1775 11.215 27.1775 11.0889 27.0518L8.58267 24.5444H8.58218Z" fill="#1A8E46"/>
<path d="M30.4735 14.5157C30.9766 15.019 30.9761 15.8344 30.4735 16.3378L27.9688 18.8437C27.8431 18.9694 27.6391 18.9694 27.5134 18.8437L20.229 11.5557C20.1033 11.43 20.1033 11.2259 20.229 11.1002L22.7337 8.59431C23.2368 8.09096 24.0523 8.09096 24.5549 8.59431L30.4735 14.5157Z" fill="#1A8E46"/>
<path d="M22.9396 15.1928C23.0653 15.3185 23.0648 15.5221 22.9392 15.6478L19.751 18.8375C19.6253 18.9632 19.4218 18.9637 19.2962 18.838L18.7285 18.2701C17.9445 17.4857 17.4971 16.4692 17.4986 15.4398C17.5001 14.4104 17.9509 13.3682 18.7369 12.5819L19.306 12.0125C19.4317 11.8868 19.6352 11.8863 19.7608 12.012L22.9396 15.1928Z" fill="#A6DBAB"/>
<path d="M24.5406 22.2654C24.0375 22.7688 23.2215 22.7688 22.7179 22.2654L20.2117 19.7576C20.0861 19.6319 20.0861 19.4278 20.2117 19.3016L23.4014 16.1099C23.527 15.9842 23.731 15.9842 23.8572 16.1099L27.0468 19.3016C27.1725 19.4273 27.1725 19.6314 27.0468 19.7576L24.5406 22.265V22.2654Z" fill="#1A8E46"/>
<path d="M52.8438 13.0413C52.2551 12.4072 51.6814 11.9845 51.1228 11.7732C50.5794 11.5618 50.0284 11.4562 49.4698 11.4562C48.6395 11.4562 47.8847 11.6071 47.2054 11.9091C46.5412 12.1959 45.9675 12.6035 45.4844 13.1318C45.0013 13.6451 44.6239 14.249 44.3522 14.9434C44.0956 15.6378 43.9673 16.3851 43.9673 17.1852C43.9673 18.0456 44.0956 18.8382 44.3522 19.5628C44.6239 20.2874 45.0013 20.9139 45.4844 21.4423C45.9675 21.9707 46.5412 22.3858 47.2054 22.6877C47.8847 22.9896 48.6395 23.1406 49.4698 23.1406C50.119 23.1406 50.7454 22.9896 51.3493 22.6877C51.9682 22.3707 52.5419 21.8725 53.0703 21.1932L55.4253 22.8689C54.7006 23.8652 53.8175 24.5898 52.7759 25.0427C51.7342 25.4956 50.6247 25.722 49.4472 25.722C48.2093 25.722 47.0695 25.5258 46.0279 25.1333C45.0013 24.7257 44.1107 24.1596 43.3559 23.435C42.6162 22.6953 42.035 21.8121 41.6123 20.7856C41.1896 19.7591 40.9782 18.6193 40.9782 17.3663C40.9782 16.0831 41.1896 14.9207 41.6123 13.8791C42.035 12.8224 42.6162 11.9241 43.3559 11.1844C44.1107 10.4447 45.0013 9.87862 46.0279 9.48612C47.0695 9.07852 48.2093 8.87472 49.4472 8.87472C50.5341 8.87472 51.538 9.07097 52.4589 9.46347C53.3948 9.84088 54.2629 10.49 55.0629 11.4109L52.8438 13.0413ZM57.0912 14.4452H59.8085V16.1662H59.8538C60.1557 15.5321 60.586 15.0415 61.1445 14.6943C61.7031 14.3471 62.3447 14.1735 63.0693 14.1735C63.2353 14.1735 63.3939 14.1886 63.5448 14.2188C63.7109 14.249 63.8769 14.2867 64.043 14.332V16.9587C63.8165 16.8983 63.5901 16.853 63.3637 16.8229C63.1523 16.7776 62.941 16.7549 62.7296 16.7549C62.0956 16.7549 61.5823 16.8757 61.1898 17.1172C60.8124 17.3437 60.518 17.6079 60.3067 17.9098C60.1104 18.2117 59.9746 18.5136 59.8991 18.8156C59.8387 19.1175 59.8085 19.3439 59.8085 19.4949V25.3145H57.0912V14.4452ZM67.6682 20.8309C67.7588 21.6461 68.0758 22.2801 68.6193 22.733C69.1627 23.1859 69.8194 23.4123 70.5893 23.4123C71.2686 23.4123 71.8347 23.2765 72.2876 23.0047C72.7556 22.7179 73.1632 22.3632 73.5104 21.9405L75.4578 23.4123C74.8238 24.1973 74.1143 24.7559 73.3293 25.088C72.5443 25.4201 71.7215 25.5862 70.861 25.5862C70.0458 25.5862 69.2759 25.4503 68.5513 25.1786C67.8267 24.9069 67.2002 24.5219 66.6718 24.0237C66.1435 23.5256 65.7208 22.9293 65.4038 22.2348C65.1018 21.5253 64.9509 20.7403 64.9509 19.8798C64.9509 19.0193 65.1018 18.2419 65.4038 17.5475C65.7208 16.838 66.1435 16.2341 66.6718 15.7359C67.2002 15.2378 67.8267 14.8528 68.5513 14.5811C69.2759 14.3093 70.0458 14.1735 70.861 14.1735C71.6158 14.1735 72.3027 14.3093 72.9217 14.5811C73.5557 14.8377 74.0916 15.2151 74.5294 15.7133C74.9823 16.2115 75.3295 16.8304 75.571 17.5701C75.8277 18.2947 75.956 19.1326 75.956 20.0836V20.8309H67.6682ZM73.2387 18.7929C73.2236 17.9928 72.9745 17.3663 72.4914 16.9134C72.0083 16.4455 71.3366 16.2115 70.4761 16.2115C69.6609 16.2115 69.0118 16.4455 68.5287 16.9134C68.0607 17.3814 67.7739 18.0079 67.6682 18.7929H73.2387ZM87.1019 23.6841H87.0566C86.6641 24.3483 86.1358 24.8314 85.4715 25.1333C84.8073 25.4352 84.0902 25.5862 83.3203 25.5862C82.4749 25.5862 81.7201 25.4428 81.0559 25.1559C80.4068 24.854 79.8482 24.4464 79.3802 23.9332C78.9122 23.4199 78.5575 22.816 78.3159 22.1216C78.0744 21.4272 77.9536 20.6799 77.9536 19.8798C77.9536 19.0797 78.082 18.3325 78.3386 17.638C78.5952 16.9436 78.95 16.3398 79.4029 15.8265C79.8709 15.3132 80.4294 14.9132 81.0785 14.6264C81.7277 14.3244 82.4372 14.1735 83.2071 14.1735C83.7204 14.1735 84.1733 14.2263 84.5658 14.332C84.9583 14.4377 85.3055 14.5735 85.6074 14.7396C85.9093 14.9056 86.166 15.0868 86.3773 15.283C86.5886 15.4642 86.7623 15.6454 86.8981 15.8265H86.9661V8.19539H89.6834V25.3145H87.1019V23.6841ZM80.6709 19.8798C80.6709 20.3025 80.7389 20.7101 80.8747 21.1026C81.0257 21.4951 81.2371 21.8423 81.5088 22.1443C81.7956 22.4462 82.1353 22.6877 82.5278 22.8689C82.9203 23.05 83.3656 23.1406 83.8638 23.1406C84.362 23.1406 84.8073 23.05 85.1998 22.8689C85.5923 22.6877 85.9244 22.4462 86.1961 22.1443C86.483 21.8423 86.6943 21.4951 86.8302 21.1026C86.9811 20.7101 87.0566 20.3025 87.0566 19.8798C87.0566 19.4571 86.9811 19.0495 86.8302 18.657C86.6943 18.2645 86.483 17.9173 86.1961 17.6154C85.9244 17.3135 85.5923 17.0719 85.1998 16.8908C84.8073 16.7096 84.362 16.6191 83.8638 16.6191C83.3656 16.6191 82.9203 16.7096 82.5278 16.8908C82.1353 17.0719 81.7956 17.3135 81.5088 17.6154C81.2371 17.9173 81.0257 18.2645 80.8747 18.657C80.7389 19.0495 80.6709 19.4571 80.6709 19.8798ZM100.867 12.7242C100.565 12.2865 100.157 11.9694 99.6442 11.7732C99.146 11.5618 98.6176 11.4562 98.0591 11.4562C97.727 11.4562 97.4024 11.4939 97.0854 11.5694C96.7835 11.6449 96.5042 11.7656 96.2475 11.9317C96.006 12.0978 95.8098 12.3166 95.6588 12.5884C95.5078 12.845 95.4324 13.1545 95.4324 13.5168C95.4324 14.0603 95.6211 14.4754 95.9985 14.7622C96.3759 15.0491 96.8438 15.2981 97.4024 15.5095C97.961 15.7208 98.5724 15.9246 99.2366 16.1209C99.9008 16.3171 100.512 16.5889 101.071 16.9361C101.629 17.2833 102.097 17.7437 102.475 18.3174C102.852 18.891 103.041 19.6534 103.041 20.6044C103.041 21.4649 102.882 22.2197 102.565 22.8689C102.248 23.5029 101.818 24.0313 101.275 24.454C100.746 24.8767 100.127 25.1937 99.4177 25.405C98.7082 25.6164 97.961 25.722 97.176 25.722C96.1796 25.722 95.221 25.556 94.3001 25.2239C93.3793 24.8918 92.5867 24.3332 91.9225 23.5482L94.0737 21.4649C94.4209 21.9933 94.8738 22.4084 95.4324 22.7104C96.006 22.9972 96.6099 23.1406 97.2439 23.1406C97.576 23.1406 97.9081 23.0953 98.2402 23.0047C98.5724 22.9142 98.8743 22.7783 99.146 22.5971C99.4177 22.416 99.6366 22.1895 99.8027 21.9178C99.9688 21.631 100.052 21.3064 100.052 20.9441C100.052 20.3554 99.8631 19.9025 99.4857 19.5855C99.1083 19.2684 98.6403 19.0043 98.0817 18.7929C97.5232 18.5665 96.9118 18.3551 96.2475 18.1589C95.5833 17.9626 94.9719 17.6984 94.4134 17.3663C93.8548 17.0191 93.3868 16.5662 93.0094 16.0077C92.632 15.434 92.4433 14.6717 92.4433 13.7206C92.4433 12.8903 92.6094 12.1732 92.9415 11.5694C93.2887 10.9655 93.734 10.4674 94.2775 10.0749C94.8361 9.66727 95.4701 9.36535 96.1796 9.1691C96.8891 8.97285 97.6137 8.87472 98.3535 8.87472C99.1988 8.87472 100.014 9.00304 100.799 9.25967C101.599 9.51631 102.316 9.939 102.95 10.5278L100.867 12.7242ZM107.937 20.8309C108.028 21.6461 108.345 22.2801 108.888 22.733C109.431 23.1859 110.088 23.4123 110.858 23.4123C111.537 23.4123 112.103 23.2765 112.556 23.0047C113.024 22.7179 113.432 22.3632 113.779 21.9405L115.727 23.4123C115.093 24.1973 114.383 24.7559 113.598 25.088C112.813 25.4201 111.99 25.5862 111.13 25.5862C110.315 25.5862 109.545 25.4503 108.82 25.1786C108.095 24.9069 107.469 24.5219 106.941 24.0237C106.412 23.5256 105.99 22.9293 105.673 22.2348C105.371 21.5253 105.22 20.7403 105.22 19.8798C105.22 19.0193 105.371 18.2419 105.673 17.5475C105.99 16.838 106.412 16.2341 106.941 15.7359C107.469 15.2378 108.095 14.8528 108.82 14.5811C109.545 14.3093 110.315 14.1735 111.13 14.1735C111.885 14.1735 112.571 14.3093 113.19 14.5811C113.824 14.8377 114.36 15.2151 114.798 15.7133C115.251 16.2115 115.598 16.8304 115.84 17.5701C116.096 18.2947 116.225 19.1326 116.225 20.0836V20.8309H107.937ZM113.507 18.7929C113.492 17.9928 113.243 17.3663 112.76 16.9134C112.277 16.4455 111.605 16.2115 110.745 16.2115C109.93 16.2115 109.28 16.4455 108.797 16.9134C108.329 17.3814 108.043 18.0079 107.937 18.7929H113.507ZM118.766 14.4452H121.483V16.1662H121.528C121.83 15.5321 122.261 15.0415 122.819 14.6943C123.378 14.3471 124.019 14.1735 124.744 14.1735C124.91 14.1735 125.068 14.1886 125.219 14.2188C125.386 14.249 125.552 14.2867 125.718 14.332V16.9587C125.491 16.8983 125.265 16.853 125.038 16.8229C124.827 16.7776 124.616 16.7549 124.404 16.7549C123.77 16.7549 123.257 16.8757 122.864 17.1172C122.487 17.3437 122.193 17.6079 121.981 17.9098C121.785 18.2117 121.649 18.5136 121.574 18.8156C121.513 19.1175 121.483 19.3439 121.483 19.4949V25.3145H118.766V14.4452ZM126.095 14.4452H129.062L131.96 22.0537H132.005L134.926 14.4452H137.712L133.432 25.3145H130.533L126.095 14.4452Z" fill="#1E1E1E"/>
<path d="M141.059 29.0331C141.304 28.7883 141.7 28.7886 141.945 29.0331L143.163 30.2515C143.224 30.3126 143.224 30.4119 143.163 30.473L139.621 34.0166C139.56 34.0777 139.461 34.0777 139.399 34.0166L138.182 32.7982C137.937 32.5534 137.937 32.1567 138.182 31.9122L141.059 29.0331Z" fill="#1A8E46"/>
<path d="M141.389 32.6981C141.45 32.6369 141.549 32.6372 141.61 32.6983L143.16 34.2492C143.222 34.3103 143.222 34.4093 143.161 34.4705L142.885 34.7466C142.503 35.128 142.009 35.3456 141.509 35.3449C141.009 35.3442 140.502 35.1249 140.12 34.7425L139.844 34.4657C139.782 34.4045 139.782 34.3055 139.843 34.2444L141.389 32.6981Z" fill="#A6DBAB"/>
<path d="M144.826 31.9193C145.07 32.164 145.07 32.561 144.826 32.806L143.607 34.0251C143.546 34.0862 143.447 34.0862 143.385 34.0251L141.834 32.4735C141.773 32.4124 141.773 32.3131 141.834 32.2518L143.385 30.7001C143.446 30.639 143.546 30.639 143.607 30.7001L144.826 31.9193H144.826Z" fill="#1A8E46"/>
<path d="M134.183 36.7948C133.939 36.55 133.939 36.1535 134.183 35.9088L135.401 34.6904C135.462 34.6292 135.561 34.6292 135.623 34.6904L139.164 38.234C139.226 38.2951 139.226 38.3943 139.164 38.4555L137.947 39.6739C137.702 39.9186 137.305 39.9186 137.061 39.6739L134.183 36.7948Z" fill="#1A8E46"/>
<path d="M137.841 36.4685C137.779 36.4074 137.78 36.3084 137.841 36.2473L139.391 34.6964C139.452 34.6352 139.551 34.635 139.612 34.6961L139.888 34.9723C140.269 35.3536 140.487 35.8479 140.486 36.3484C140.485 36.8489 140.266 37.3557 139.884 37.738L139.607 38.0149C139.546 38.076 139.447 38.0762 139.386 38.0151L137.841 36.4685Z" fill="#A6DBAB"/>
<path d="M137.065 33.0254C137.309 32.7806 137.706 32.7806 137.951 33.0254L139.17 34.2447C139.231 34.3059 139.231 34.4051 139.17 34.4665L137.619 36.0183C137.558 36.0795 137.458 36.0795 137.397 36.0183L135.846 34.4665C135.785 34.4053 135.785 34.3061 135.846 34.2447L137.065 33.0256V33.0254Z" fill="#1A8E46"/>
<path d="M141.94 43.6661C141.695 43.9108 141.299 43.9106 141.054 43.6661L139.837 42.4476C139.775 42.3865 139.775 42.2873 139.837 42.2262L143.378 38.6826C143.439 38.6214 143.539 38.6214 143.6 38.6826L144.818 39.901C145.062 40.1457 145.062 40.5424 144.818 40.787L141.94 43.6661Z" fill="#1A8E46"/>
<path d="M141.616 40.0082C141.555 40.0693 141.456 40.0691 141.395 40.0079L139.844 38.457C139.783 38.3959 139.783 38.2969 139.844 38.2358L140.12 37.9596C140.501 37.5783 140.995 37.3606 141.496 37.3613C141.996 37.362 142.502 37.5814 142.885 37.9637L143.161 38.2406C143.222 38.3017 143.223 38.4007 143.161 38.4618L141.616 40.0082Z" fill="#A6DBAB"/>
<path d="M138.173 40.7825C137.928 40.5378 137.928 40.1408 138.173 39.8959L139.392 38.6767C139.453 38.6156 139.552 38.6156 139.613 38.6767L141.164 40.2283C141.225 40.2895 141.225 40.3887 141.164 40.4501L139.613 42.0017C139.552 42.0628 139.453 42.0628 139.392 42.0017L138.173 40.7825H138.173Z" fill="#1A8E46"/>
<path d="M148.817 35.9064C149.061 36.1512 149.061 36.5476 148.817 36.7924L147.599 38.0108C147.538 38.0719 147.439 38.0719 147.377 38.0108L143.836 34.4672C143.774 34.4061 143.774 34.3069 143.836 34.2457L145.053 33.0273C145.298 32.7826 145.695 32.7826 145.939 33.0273L148.817 35.9064Z" fill="#1A8E46"/>
<path d="M145.154 36.2368C145.215 36.298 145.214 36.397 145.153 36.4581L143.603 38.009C143.542 38.0701 143.443 38.0704 143.382 38.0092L143.106 37.7331C142.725 37.3517 142.507 36.8574 142.508 36.3569C142.509 35.8564 142.728 35.3497 143.11 34.9674L143.387 34.6905C143.448 34.6294 143.547 34.6291 143.608 34.6903L145.154 36.2368Z" fill="#A6DBAB"/>
<path d="M145.932 39.6755C145.687 39.9203 145.291 39.9203 145.046 39.6755L143.827 38.4562C143.766 38.395 143.766 38.2958 143.827 38.2344L145.378 36.6826C145.439 36.6214 145.538 36.6214 145.6 36.6826L147.151 38.2344C147.212 38.2956 147.212 38.3948 147.151 38.4562L145.932 39.6753V39.6755Z" fill="#1A8E46"/>
<path d="M158.494 33.7054C157.343 33.7054 156.223 34.1926 156.161 35.4886H157.52C157.571 35.0635 157.914 34.8667 158.494 34.8667C159.075 34.8667 159.345 35.1156 159.345 35.5198V35.8308H157.872C156.732 35.8308 155.965 36.2974 155.965 37.2615C155.965 38.2256 156.68 38.8997 157.945 38.8997C158.505 38.8997 158.972 38.7235 159.345 38.4848V38.7752H160.682V35.5195C160.682 34.265 159.729 33.7051 158.495 33.7051L158.494 33.7054ZM158.11 37.7905C157.467 37.7905 157.26 37.5108 157.26 37.2512C157.26 37.0335 157.426 36.8364 157.841 36.8364H159.344V37.3963C158.888 37.697 158.545 37.7902 158.11 37.7902L158.11 37.7905Z" fill="black"/>
<path d="M161.776 33.8301V38.7758H163.135V33.8301H161.776Z" fill="black"/>
<path d="M169.929 38.7755H171.682L169.505 35.8829L171.443 33.8298H169.722L167.742 35.9552V31.4141H167.067C166.69 31.4141 166.384 31.7199 166.384 32.0971V38.7755H167.742V37.7387L168.572 36.8679L169.93 38.7755H169.929Z" fill="black"/>
<path d="M172.336 33.8301V38.7758H173.694V33.8301H172.336Z" fill="black"/>
<path d="M175.852 37.0646L174.598 37.0543C174.701 38.4953 175.8 38.8999 176.889 38.8999C178.143 38.8999 179.097 38.3606 179.097 37.2617C179.097 36.3079 178.382 35.9554 177.615 35.8207L176.723 35.6757C176.246 35.5927 176.111 35.375 176.111 35.1884C176.111 34.9498 176.36 34.7736 176.879 34.7736C177.356 34.7736 177.781 34.9186 177.812 35.3647H179.066C178.952 33.9442 177.77 33.6953 176.879 33.6953C175.624 33.6953 174.764 34.307 174.764 35.3232C174.764 36.2564 175.5 36.6504 176.226 36.7748L177.294 36.9614C177.636 37.0234 177.802 37.1894 177.802 37.3865C177.802 37.6666 177.439 37.8013 176.92 37.8013C176.34 37.8013 175.935 37.6251 175.852 37.0652L175.852 37.0646Z" fill="black"/>
<path d="M182.145 33.7054C180.994 33.7054 179.874 34.1926 179.812 35.4886H181.17C181.222 35.0635 181.564 34.8667 182.145 34.8667C182.726 34.8667 182.995 35.1156 182.995 35.5198V35.8308H181.523C180.383 35.8308 179.615 36.2974 179.615 37.2615C179.615 38.2256 180.331 38.8997 181.596 38.8997C182.156 38.8997 182.622 38.7235 182.995 38.4848V38.7752H184.333V35.5195C184.333 34.265 183.379 33.7051 182.145 33.7051L182.145 33.7054ZM181.761 37.7905C181.118 37.7905 180.911 37.5108 180.911 37.2512C180.911 37.0335 181.077 36.8364 181.492 36.8364H182.995V37.3963C182.539 37.697 182.197 37.7902 181.761 37.7902V37.7905Z" fill="black"/>
<path d="M188.148 33.7051C187.588 33.7051 187.122 33.8813 186.717 34.2029V33.8295H185.359V38.7752H186.714V36.0755C186.714 35.4494 187.221 34.9419 187.847 34.9419C188.474 34.9419 188.981 35.4494 188.981 36.0755V38.7752H190.336V36.09C190.336 34.6383 189.465 33.7054 188.148 33.7054V33.7051Z" fill="black"/>
<path d="M153.699 33.8301V39.1385C153.699 39.8258 153.475 40.0361 152.727 40.1007H152.665V41.2848H152.835V41.2842C154.593 41.2478 155.057 40.44 155.057 38.9623V33.8301H153.699Z" fill="black"/>
<path d="M162.46 31.4141H163.135V32.7725H161.776V32.0984C161.776 31.7205 162.083 31.4141 162.46 31.4141Z" fill="black"/>
<path d="M173.02 31.4141H173.694V32.7725H172.336V32.0984C172.336 31.7205 172.643 31.4141 173.02 31.4141Z" fill="black"/>
<path d="M154.383 31.4141H155.057V32.7725H153.699V32.0984C153.699 31.7205 154.006 31.4141 154.383 31.4141Z" fill="black"/>
<path d="M60.1797 43.3042L61.6882 34.3042H62.9325L62.7578 35.3652H62.8643C62.9609 35.2289 63.0916 35.0712 63.2564 34.8922C63.424 34.7132 63.6442 34.557 63.9169 34.4235C64.1896 34.2871 64.5291 34.2189 64.9354 34.2189C65.4638 34.2189 65.9112 34.3525 66.2777 34.6195C66.6442 34.8865 66.9055 35.2715 67.0618 35.7743C67.218 36.2772 67.2379 36.8823 67.1214 37.5897C67.005 38.2971 66.7862 38.9036 66.4652 39.4093C66.1442 39.9121 65.755 40.2999 65.2976 40.5726C64.843 40.8425 64.3501 40.9775 63.8189 40.9775C63.4212 40.9775 63.1072 40.9107 62.8771 40.7772C62.6499 40.6436 62.4808 40.4874 62.37 40.3084C62.2592 40.1294 62.1754 39.9703 62.1186 39.8311H62.0419L61.4624 43.3042H60.1797ZM62.3913 37.5769C62.3175 38.0371 62.3175 38.4405 62.3913 38.7871C62.4652 39.1337 62.6129 39.405 62.8345 39.601C63.0589 39.7942 63.3544 39.8908 63.7209 39.8908C64.1016 39.8908 64.4354 39.79 64.7223 39.5882C65.0092 39.3837 65.2464 39.1067 65.4339 38.7573C65.6243 38.4078 65.7564 38.0144 65.8303 37.5769C65.9013 37.1451 65.8999 36.7573 65.826 36.4135C65.755 36.0698 65.6087 35.7985 65.3871 35.5996C65.1655 35.4007 64.8629 35.3013 64.4794 35.3013C64.1072 35.3013 63.7777 35.3965 63.4908 35.5868C63.2067 35.7772 62.9709 36.0428 62.7834 36.3837C62.5959 36.7246 62.4652 37.1223 62.3913 37.5769ZM70.7894 40.9817C70.1673 40.9817 69.6474 40.8397 69.2298 40.5556C68.8121 40.2686 68.5181 39.8681 68.3477 39.3539C68.18 38.8368 68.1516 38.236 68.2624 37.5513C68.3704 36.8809 68.5877 36.2956 68.9144 35.7956C69.244 35.2956 69.6559 34.9078 70.1502 34.6323C70.6474 34.3567 71.1999 34.2189 71.8079 34.2189C72.43 34.2189 72.9485 34.3624 73.3633 34.6493C73.7809 34.9363 74.0749 35.3382 74.2454 35.8553C74.4158 36.3723 74.4457 36.9746 74.3349 37.6621C74.2269 38.3269 74.0067 38.9093 73.6744 39.4093C73.3448 39.9064 72.9329 40.2928 72.4386 40.5684C71.9442 40.8439 71.3945 40.9817 70.7894 40.9817ZM70.8619 39.9121C71.271 39.9121 71.6275 39.8042 71.9315 39.5882C72.2383 39.3723 72.4883 39.0854 72.6815 38.7275C72.8746 38.3695 73.0067 37.9775 73.0778 37.5513C73.1431 37.1394 73.1417 36.763 73.0735 36.4221C73.0082 36.0783 72.8661 35.8027 72.6474 35.5953C72.4286 35.388 72.1246 35.2843 71.7354 35.2843C71.3263 35.2843 70.967 35.3936 70.6573 35.6124C70.3505 35.8283 70.1005 36.1167 69.9073 36.4775C69.717 36.8382 69.5877 37.2317 69.5195 37.6578C69.4542 38.0669 69.4542 38.4434 69.5195 38.7871C69.5849 39.128 69.7269 39.4007 69.9457 39.6053C70.1644 39.8098 70.4698 39.9121 70.8619 39.9121ZM76.4528 40.8496L75.6175 34.3042H76.9343L77.4158 39.111H77.4798L79.5678 34.3042H80.8846L81.3619 39.0897H81.4258L83.5011 34.3042H84.8178L81.805 40.8496H80.5053L79.9599 36.1238H79.8619L77.7482 40.8496H76.4528ZM87.5408 40.9817C86.8988 40.9817 86.3675 40.8439 85.9471 40.5684C85.5295 40.29 85.2369 39.8993 85.0692 39.3965C84.9016 38.8908 84.8746 38.2985 84.9883 37.6195C85.0991 36.949 85.3221 36.3581 85.6573 35.8468C85.9925 35.3354 86.4102 34.9363 86.9102 34.6493C87.413 34.3624 87.9684 34.2189 88.5763 34.2189C88.9457 34.2189 89.2937 34.28 89.6204 34.4022C89.9499 34.5243 90.2298 34.7161 90.4599 34.9775C90.69 35.2388 90.8491 35.5783 90.9371 35.9959C91.0281 36.4107 91.0252 36.915 90.9286 37.5087L90.8562 37.9604H85.6488L85.7979 37.0059H89.7525C89.8121 36.6706 89.7965 36.3738 89.7056 36.1152C89.6147 35.8539 89.4585 35.6479 89.2369 35.4973C89.0181 35.3468 88.7425 35.2715 88.4102 35.2715C88.0692 35.2715 87.7511 35.361 87.4556 35.54C87.1602 35.7189 86.913 35.9476 86.7141 36.226C86.5181 36.5016 86.3945 36.7857 86.3434 37.0783L86.1942 37.9519C86.1204 38.4292 86.1332 38.8127 86.2326 39.1025C86.3349 39.3922 86.5138 39.6025 86.7695 39.7331C87.0252 39.8638 87.3448 39.9292 87.7283 39.9292C87.9755 39.9292 88.2042 39.8951 88.4144 39.8269C88.6275 39.7559 88.8164 39.6522 88.9812 39.5158C89.146 39.3766 89.2837 39.2033 89.3945 38.9959L90.5621 39.2132C90.4059 39.5684 90.1815 39.8794 89.8888 40.1465C89.5962 40.4107 89.2511 40.6167 88.8533 40.7644C88.4585 40.9093 88.021 40.9817 87.5408 40.9817ZM91.8033 40.8496L92.8942 34.3042H94.1257L93.951 35.3439H94.0192C94.1953 34.9917 94.4524 34.7147 94.7905 34.513C95.1286 34.3084 95.4893 34.2061 95.8729 34.2061C95.9553 34.2061 96.049 34.209 96.1541 34.2147C96.2592 34.2175 96.3445 34.2246 96.4098 34.236L96.2053 35.4547C96.157 35.4405 96.0689 35.4249 95.9411 35.4078C95.8132 35.388 95.6811 35.378 95.5447 35.378C95.2464 35.378 94.9695 35.4419 94.7138 35.5698C94.4581 35.6948 94.2436 35.8695 94.0703 36.0939C93.897 36.3155 93.7848 36.5684 93.7337 36.8525L93.0774 40.8496H91.8033ZM99.0018 40.9817C98.3597 40.9817 97.8285 40.8439 97.408 40.5684C96.9904 40.29 96.6978 39.8993 96.5302 39.3965C96.3626 38.8908 96.3356 38.2985 96.4492 37.6195C96.56 36.949 96.783 36.3581 97.1183 35.8468C97.4535 35.3354 97.8711 34.9363 98.3711 34.6493C98.8739 34.3624 99.4293 34.2189 100.037 34.2189C100.407 34.2189 100.755 34.28 101.081 34.4022C101.411 34.5243 101.691 34.7161 101.921 34.9775C102.151 35.2388 102.31 35.5783 102.398 35.9959C102.489 36.4107 102.486 36.915 102.39 37.5087L102.317 37.9604H97.1097L97.2589 37.0059H101.213C101.273 36.6706 101.257 36.3738 101.167 36.1152C101.076 35.8539 100.919 35.6479 100.698 35.4973C100.479 35.3468 100.203 35.2715 99.8711 35.2715C99.5302 35.2715 99.212 35.361 98.9165 35.54C98.6211 35.7189 98.3739 35.9476 98.1751 36.226C97.979 36.5016 97.8555 36.7857 97.8043 37.0783L97.6552 37.9519C97.5813 38.4292 97.5941 38.8127 97.6935 39.1025C97.7958 39.3922 97.9748 39.6025 98.2305 39.7331C98.4862 39.8638 98.8058 39.9292 99.1893 39.9292C99.4364 39.9292 99.6651 39.8951 99.8754 39.8269C100.088 39.7559 100.277 39.6522 100.442 39.5158C100.607 39.3766 100.745 39.2033 100.855 38.9959L102.023 39.2132C101.867 39.5684 101.642 39.8794 101.35 40.1465C101.057 40.4107 100.712 40.6167 100.314 40.7644C99.9194 40.9093 99.4819 40.9817 99.0018 40.9817ZM105.706 40.9775C105.175 40.9775 104.724 40.8425 104.355 40.5726C103.989 40.2999 103.729 39.9121 103.575 39.4093C103.425 38.9036 103.408 38.2971 103.524 37.5897C103.643 36.8823 103.864 36.2772 104.185 35.7743C104.506 35.2715 104.895 34.8865 105.352 34.6195C105.81 34.3525 106.303 34.2189 106.831 34.2189C107.237 34.2189 107.553 34.2871 107.777 34.4235C108.004 34.557 108.172 34.7132 108.28 34.8922C108.388 35.0712 108.469 35.2289 108.523 35.3652H108.595L109.136 32.1223H110.411L108.962 40.8496H107.717L107.892 39.8311H107.786C107.686 39.9703 107.548 40.1294 107.372 40.3084C107.199 40.4874 106.977 40.6436 106.707 40.7772C106.438 40.9107 106.104 40.9775 105.706 40.9775ZM106.136 39.8908C106.503 39.8908 106.831 39.7942 107.121 39.601C107.413 39.405 107.656 39.1337 107.849 38.7871C108.045 38.4405 108.182 38.0371 108.259 37.5769C108.335 37.1223 108.334 36.7246 108.254 36.3837C108.175 36.0428 108.021 35.7772 107.794 35.5868C107.567 35.3965 107.267 35.3013 106.895 35.3013C106.511 35.3013 106.178 35.4007 105.893 35.5996C105.609 35.7985 105.376 36.0698 105.195 36.4135C105.016 36.7573 104.891 37.1451 104.82 37.5769C104.746 38.0144 104.743 38.4078 104.811 38.7573C104.879 39.1067 105.023 39.3837 105.241 39.5882C105.46 39.79 105.759 39.8908 106.136 39.8908ZM114.054 40.8496L115.503 32.1223H116.777L116.244 35.3652H116.321C116.418 35.2289 116.55 35.0712 116.717 34.8922C116.888 34.7132 117.108 34.557 117.378 34.4235C117.648 34.2871 117.986 34.2189 118.392 34.2189C118.92 34.2189 119.369 34.3525 119.739 34.6195C120.108 34.8865 120.369 35.2715 120.523 35.7743C120.676 36.2772 120.695 36.8823 120.578 37.5897C120.462 38.2971 120.243 38.9036 119.922 39.4093C119.604 39.9121 119.216 40.2999 118.759 40.5726C118.301 40.8425 117.808 40.9775 117.28 40.9775C116.882 40.9775 116.568 40.9107 116.338 40.7772C116.111 40.6436 115.94 40.4874 115.827 40.3084C115.716 40.1294 115.632 39.9703 115.575 39.8311H115.469L115.298 40.8496H114.054ZM115.848 37.5769C115.774 38.0371 115.774 38.4405 115.848 38.7871C115.925 39.1337 116.074 39.405 116.295 39.601C116.52 39.7942 116.814 39.8908 117.178 39.8908C117.558 39.8908 117.893 39.79 118.183 39.5882C118.473 39.3837 118.712 39.1067 118.899 38.7573C119.087 38.4078 119.217 38.0144 119.291 37.5769C119.359 37.1451 119.358 36.7573 119.287 36.4135C119.216 36.0698 119.068 35.7985 118.844 35.5996C118.622 35.4007 118.32 35.3013 117.936 35.3013C117.567 35.3013 117.239 35.3965 116.952 35.5868C116.665 35.7772 116.428 36.0428 116.24 36.3837C116.053 36.7246 115.922 37.1223 115.848 37.5769ZM121.646 43.3042C121.452 43.3042 121.281 43.2885 121.13 43.2573C120.979 43.2289 120.867 43.1976 120.793 43.1635L121.279 42.1195C121.504 42.182 121.704 42.2061 121.88 42.1919C122.059 42.1777 122.227 42.1039 122.383 41.9703C122.539 41.8368 122.698 41.6266 122.86 41.3397L123.099 40.9093L121.816 34.3042H123.129L123.938 39.3965H124.006L126.512 34.3042H127.931L124.006 41.7147C123.822 42.0669 123.612 42.3596 123.376 42.5925C123.143 42.8283 122.881 43.0059 122.592 43.1252C122.305 43.2445 121.989 43.3042 121.646 43.3042Z" fill="#0D9C55"/>
</svg>
