<svg width="27" height="22" viewBox="0 0 27 22" fill="none" xmlns="http://www.w3.org/2000/svg">
<path d="M22.6667 0C23.7275 0 24.7449 0.421427 25.4951 1.17157C26.2452 1.92172 26.6667 2.93913 26.6667 4V17.3333C26.6667 18.3942 26.2452 19.4116 25.4951 20.1618C24.7449 20.9119 23.7275 21.3333 22.6667 21.3333H4C2.93913 21.3333 1.92172 20.9119 1.17157 20.1618C0.421427 19.4116 0 18.3942 0 17.3333V4C0 2.93913 0.421427 1.92172 1.17157 1.17157C1.92172 0.421427 2.93913 0 4 0H22.6667ZM24 8H2.66667V17.3333C2.66671 17.6599 2.78661 17.9751 3.00362 18.2192C3.22063 18.4632 3.51966 18.6191 3.844 18.6573L4 18.6667H22.6667C22.9932 18.6666 23.3084 18.5467 23.5525 18.3297C23.7965 18.1127 23.9525 17.8137 23.9907 17.4893L24 17.3333V8ZM20 12C20.3398 12.0004 20.6667 12.1305 20.9138 12.3638C21.1609 12.5971 21.3096 12.9159 21.3296 13.2552C21.3495 13.5944 21.2391 13.9285 21.021 14.1891C20.8029 14.4497 20.4935 14.6172 20.156 14.6573L20 14.6667H16C15.6602 14.6663 15.3333 14.5362 15.0862 14.3029C14.8391 14.0696 14.6904 13.7507 14.6704 13.4115C14.6505 13.0722 14.7609 12.7382 14.979 12.4776C15.1971 12.217 15.5065 12.0495 15.844 12.0093L16 12H20ZM22.6667 2.66667H4C3.64638 2.66667 3.30724 2.80714 3.05719 3.05719C2.80714 3.30724 2.66667 3.64638 2.66667 4V5.33333H24V4C24 3.64638 23.8595 3.30724 23.6095 3.05719C23.3594 2.80714 23.0203 2.66667 22.6667 2.66667Z" fill="white"/>
</svg>
