<svg width="58" height="58" viewBox="0 0 58 58" fill="none" xmlns="http://www.w3.org/2000/svg">
<rect width="58" height="58" rx="12" fill="url(#paint0_linear_1628_5224)"/>
<g clip-path="url(#clip0_1628_5224)">
<path fill-rule="evenodd" clip-rule="evenodd" d="M39.6667 19.666C40.3394 19.6658 40.9874 19.9199 41.4807 20.3773C41.974 20.8348 42.2762 21.4618 42.3267 22.1327L42.3333 22.3327V35.666C42.3335 36.3388 42.0795 36.9868 41.622 37.4801C41.1646 37.9734 40.5375 38.2756 39.8667 38.326L39.6667 38.3327H18.3333C17.6606 38.3329 17.0126 38.0788 16.5193 37.6214C16.026 37.1639 15.7238 36.5369 15.6733 35.866L15.6667 35.666V22.3327C15.6665 21.6599 15.9205 21.0119 16.378 20.5186C16.8355 20.0253 17.4625 19.7231 18.1333 19.6727L18.3333 19.666H39.6667ZM35.6707 22.3327H22.3293L22.3333 22.4993C22.3333 23.0027 22.2342 23.5012 22.0415 23.9663C21.8489 24.4314 21.5665 24.854 21.2106 25.2099C20.8546 25.5659 20.432 25.8482 19.967 26.0409C19.5019 26.2335 19.0034 26.3327 18.5 26.3327L18.3333 26.3287V31.67L18.5 31.666C19.5167 31.666 20.4917 32.0699 21.2106 32.7888C21.9295 33.5077 22.3333 34.4827 22.3333 35.4993L22.3293 35.666H35.6707L35.6667 35.4993C35.6667 34.5217 36.0402 33.581 36.7109 32.8697C37.3816 32.1583 38.2987 31.7302 39.2747 31.6727L39.584 31.6673L39.6667 31.67V26.3287L39.5 26.3327C38.5224 26.3327 37.5817 25.9591 36.8703 25.2884C36.159 24.6178 35.7308 23.7006 35.6733 22.7247L35.6667 22.4153L35.6707 22.3327ZM39.5 34.3327C39.3327 34.3327 39.1674 34.3687 39.0152 34.4382C38.8631 34.5077 38.7276 34.6091 38.6181 34.7356C38.5086 34.8621 38.4276 35.0106 38.3805 35.1711C38.3334 35.3317 38.3214 35.5004 38.3453 35.666H39.6667V34.3447C39.6115 34.3368 39.5558 34.3328 39.5 34.3327ZM18.5 34.3327C18.4442 34.3328 18.3885 34.3368 18.3333 34.3447V35.666H19.6547C19.6786 35.5004 19.6666 35.3317 19.6195 35.1711C19.5725 35.0106 19.4914 34.8621 19.3819 34.7356C19.2724 34.6091 19.137 34.5077 18.9848 34.4382C18.8326 34.3687 18.6673 34.3327 18.5 34.3327ZM29 23.666C30.4145 23.666 31.771 24.2279 32.7712 25.2281C33.7714 26.2283 34.3333 27.5849 34.3333 28.9993C34.3333 30.4138 33.7714 31.7704 32.7712 32.7706C31.771 33.7708 30.4145 34.3327 29 34.3327C27.5855 34.3327 26.229 33.7708 25.2288 32.7706C24.2286 31.7704 23.6667 30.4138 23.6667 28.9993C23.6667 27.5849 24.2286 26.2283 25.2288 25.2281C26.229 24.2279 27.5855 23.666 29 23.666ZM29 26.3327C28.2928 26.3327 27.6145 26.6136 27.1144 27.1137C26.6143 27.6138 26.3333 28.2921 26.3333 28.9993C26.3333 29.7066 26.6143 30.3849 27.1144 30.885C27.6145 31.3851 28.2928 31.666 29 31.666C29.7072 31.666 30.3855 31.3851 30.8856 30.885C31.3857 30.3849 31.6667 29.7066 31.6667 28.9993C31.6667 28.2921 31.3857 27.6138 30.8856 27.1137C30.3855 26.6136 29.7072 26.3327 29 26.3327ZM19.6547 22.3327H18.3333V23.654C18.4989 23.6779 18.6677 23.6659 18.8282 23.6189C18.9888 23.5718 19.1373 23.4908 19.2638 23.3812C19.3902 23.2717 19.4916 23.1363 19.5612 22.9841C19.6307 22.832 19.6667 22.6666 19.6667 22.4993L19.664 22.4153L19.6547 22.3327ZM39.6667 22.3327H38.3453C38.3214 22.4983 38.3334 22.667 38.3805 22.8276C38.4276 22.9881 38.5086 23.1366 38.6181 23.2631C38.7276 23.3896 38.8631 23.491 39.0152 23.5605C39.1674 23.63 39.3327 23.666 39.5 23.666L39.584 23.6633L39.6667 23.6527V22.3327Z" fill="white"/>
</g>
<defs>
<linearGradient id="paint0_linear_1628_5224" x1="3.5" y1="4.5" x2="54.5" y2="54.5" gradientUnits="userSpaceOnUse">
<stop stop-color="#A551F5" stop-opacity="0.8"/>
<stop offset="1" stop-color="#9538EC"/>
</linearGradient>
<clipPath id="clip0_1628_5224">
<rect width="32" height="32" fill="white" transform="translate(13 13)"/>
</clipPath>
</defs>
</svg>
