<svg width="27" height="19" viewBox="0 0 27 19" fill="none" xmlns="http://www.w3.org/2000/svg">
<path fill-rule="evenodd" clip-rule="evenodd" d="M24 1.33691e-07C24.6728 -0.000212772 25.3208 0.253875 25.8141 0.711329C26.3074 1.16878 26.6095 1.79579 26.66 2.46667L26.6667 2.66667V16C26.6669 16.6728 26.4128 17.3208 25.9553 17.8141C25.4979 18.3074 24.8709 18.6095 24.2 18.66L24 18.6667H2.66667C1.9939 18.6669 1.34591 18.4128 0.852603 17.9553C0.359294 17.4979 0.0571246 16.8709 0.00666695 16.2L1.33691e-07 16V2.66667C-0.000212772 1.9939 0.253875 1.34591 0.711329 0.852603C1.16878 0.359294 1.79579 0.0571246 2.46667 0.00666695L2.66667 1.33691e-07H24ZM20.004 2.66667H6.66267L6.66667 2.83333C6.66667 3.33673 6.56751 3.83521 6.37487 4.30029C6.18223 4.76537 5.89987 5.18795 5.54391 5.54391C5.18795 5.89987 4.76537 6.18223 4.30029 6.37487C3.83521 6.56751 3.33673 6.66667 2.83333 6.66667L2.66667 6.66267V12.004L2.83333 12C3.85 12 4.82502 12.4039 5.54391 13.1228C6.2628 13.8416 6.66667 14.8167 6.66667 15.8333L6.66267 16H20.004L20 15.8333C20 14.8557 20.3736 13.915 21.0442 13.2037C21.7149 12.4923 22.632 12.0641 23.608 12.0067L23.9173 12.0013L24 12.004V6.66267L23.8333 6.66667C22.8557 6.66666 21.915 6.29311 21.2037 5.62243C20.4923 4.95175 20.0641 4.03463 20.0067 3.05867L20 2.74933L20.004 2.66667ZM23.8333 14.6667C23.666 14.6667 23.5007 14.7027 23.3485 14.7722C23.1964 14.8417 23.061 14.9431 22.9514 15.0696C22.8419 15.196 22.7609 15.3446 22.7138 15.5051C22.6668 15.6656 22.6548 15.8344 22.6787 16H24V14.6787C23.9448 14.6707 23.8891 14.6667 23.8333 14.6667ZM2.83333 14.6667C2.77756 14.6667 2.72187 14.6707 2.66667 14.6787V16H3.988C4.0119 15.8344 3.99991 15.6656 3.95285 15.5051C3.90578 15.3446 3.82474 15.196 3.71523 15.0696C3.60571 14.9431 3.47028 14.8417 3.31812 14.7722C3.16596 14.7027 3.00062 14.6667 2.83333 14.6667ZM13.3333 4C14.7478 4 16.1044 4.5619 17.1046 5.5621C18.1048 6.56229 18.6667 7.91884 18.6667 9.33333C18.6667 10.7478 18.1048 12.1044 17.1046 13.1046C16.1044 14.1048 14.7478 14.6667 13.3333 14.6667C11.9188 14.6667 10.5623 14.1048 9.5621 13.1046C8.5619 12.1044 8 10.7478 8 9.33333C8 7.91884 8.5619 6.56229 9.5621 5.5621C10.5623 4.5619 11.9188 4 13.3333 4ZM13.3333 6.66667C12.6261 6.66667 11.9478 6.94762 11.4477 7.44772C10.9476 7.94781 10.6667 8.62609 10.6667 9.33333C10.6667 10.0406 10.9476 10.7189 11.4477 11.219C11.9478 11.719 12.6261 12 13.3333 12C14.0406 12 14.7189 11.719 15.219 11.219C15.719 10.7189 16 10.0406 16 9.33333C16 8.62609 15.719 7.94781 15.219 7.44772C14.7189 6.94762 14.0406 6.66667 13.3333 6.66667ZM3.988 2.66667H2.66667V3.988C2.83224 4.0119 3.00102 3.99991 3.16155 3.95285C3.32209 3.90578 3.47062 3.82474 3.59708 3.71523C3.72354 3.60571 3.82497 3.47028 3.89449 3.31812C3.96401 3.16596 3.99999 3.00062 4 2.83333L3.99733 2.74933L3.988 2.66667ZM24 2.66667H22.6787C22.6548 2.83224 22.6668 3.00102 22.7138 3.16155C22.7609 3.32209 22.8419 3.47062 22.9514 3.59708C23.061 3.72354 23.1964 3.82497 23.3485 3.89449C23.5007 3.96401 23.666 3.99999 23.8333 4L23.9173 3.99733L24 3.98667V2.66667Z" fill="white"/>
</svg>
