<svg width="24" height="22" viewBox="0 0 24 22" fill="none" xmlns="http://www.w3.org/2000/svg">
<path fill-rule="evenodd" clip-rule="evenodd" d="M2.66667 1.33333C2.66667 0.979711 2.52619 0.640573 2.27614 0.390525C2.02609 0.140476 1.68696 0 1.33333 0C0.979711 0 0.640573 0.140476 0.390524 0.390525C0.140476 0.640573 0 0.979711 0 1.33333V20C0 20.3536 0.140476 20.6928 0.390524 20.9428C0.640573 21.1929 0.979711 21.3333 1.33333 21.3333H22.6667C23.0203 21.3333 23.3594 21.1929 23.6095 20.9428C23.8595 20.6928 24 20.3536 24 20C24 19.6464 23.8595 19.3072 23.6095 19.0572C23.3594 18.8071 23.0203 18.6667 22.6667 18.6667H2.66667V1.33333ZM8 10.6667C8 10.313 7.85952 9.97391 7.60948 9.72386C7.35943 9.47381 7.02029 9.33333 6.66667 9.33333C6.31305 9.33333 5.97391 9.47381 5.72386 9.72386C5.47381 9.97391 5.33333 10.313 5.33333 10.6667V14.6667C5.33333 15.0203 5.47381 15.3594 5.72386 15.6095C5.97391 15.8595 6.31305 16 6.66667 16C7.02029 16 7.35943 15.8595 7.60948 15.6095C7.85952 15.3594 8 15.0203 8 14.6667V10.6667ZM12 2.66667C12.3536 2.66667 12.6928 2.80714 12.9428 3.05719C13.1929 3.30724 13.3333 3.64638 13.3333 4V14.6667C13.3333 15.0203 13.1929 15.3594 12.9428 15.6095C12.6928 15.8595 12.3536 16 12 16C11.6464 16 11.3072 15.8595 11.0572 15.6095C10.8071 15.3594 10.6667 15.0203 10.6667 14.6667V4C10.6667 3.64638 10.8071 3.30724 11.0572 3.05719C11.3072 2.80714 11.6464 2.66667 12 2.66667ZM18.6667 8C18.6667 7.64638 18.5262 7.30724 18.2761 7.05719C18.0261 6.80714 17.687 6.66667 17.3333 6.66667C16.9797 6.66667 16.6406 6.80714 16.3905 7.05719C16.1405 7.30724 16 7.64638 16 8V14.6667C16 15.0203 16.1405 15.3594 16.3905 15.6095C16.6406 15.8595 16.9797 16 17.3333 16C17.687 16 18.0261 15.8595 18.2761 15.6095C18.5262 15.3594 18.6667 15.0203 18.6667 14.6667V8Z" fill="white"/>
</svg>
