<svg width="58" height="58" viewBox="0 0 58 58" fill="none" xmlns="http://www.w3.org/2000/svg">
<rect width="58" height="58" rx="12" fill="url(#paint0_linear_1628_5222)"/>
<g clip-path="url(#clip0_1628_5222)">
<path fill-rule="evenodd" clip-rule="evenodd" d="M19.6667 19.6673C19.6667 19.3137 19.5262 18.9746 19.2761 18.7245C19.0261 18.4745 18.687 18.334 18.3333 18.334C17.9797 18.334 17.6406 18.4745 17.3905 18.7245C17.1405 18.9746 17 19.3137 17 19.6673V38.334C17 38.6876 17.1405 39.0267 17.3905 39.2768C17.6406 39.5268 17.9797 39.6673 18.3333 39.6673H39.6667C40.0203 39.6673 40.3594 39.5268 40.6095 39.2768C40.8595 39.0267 41 38.6876 41 38.334C41 37.9804 40.8595 37.6412 40.6095 37.3912C40.3594 37.1411 40.0203 37.0007 39.6667 37.0007H19.6667V19.6673ZM25 29.0007C25 28.647 24.8595 28.3079 24.6095 28.0578C24.3594 27.8078 24.0203 27.6673 23.6667 27.6673C23.313 27.6673 22.9739 27.8078 22.7239 28.0578C22.4738 28.3079 22.3333 28.647 22.3333 29.0007V33.0007C22.3333 33.3543 22.4738 33.6934 22.7239 33.9435C22.9739 34.1935 23.313 34.334 23.6667 34.334C24.0203 34.334 24.3594 34.1935 24.6095 33.9435C24.8595 33.6934 25 33.3543 25 33.0007V29.0007ZM29 21.0007C29.3536 21.0007 29.6928 21.1411 29.9428 21.3912C30.1929 21.6412 30.3333 21.9804 30.3333 22.334V33.0007C30.3333 33.3543 30.1929 33.6934 29.9428 33.9435C29.6928 34.1935 29.3536 34.334 29 34.334C28.6464 34.334 28.3072 34.1935 28.0572 33.9435C27.8071 33.6934 27.6667 33.3543 27.6667 33.0007V22.334C27.6667 21.9804 27.8071 21.6412 28.0572 21.3912C28.3072 21.1411 28.6464 21.0007 29 21.0007ZM35.6667 26.334C35.6667 25.9804 35.5262 25.6412 35.2761 25.3912C35.0261 25.1411 34.687 25.0007 34.3333 25.0007C33.9797 25.0007 33.6406 25.1411 33.3905 25.3912C33.1405 25.6412 33 25.9804 33 26.334V33.0007C33 33.3543 33.1405 33.6934 33.3905 33.9435C33.6406 34.1935 33.9797 34.334 34.3333 34.334C34.687 34.334 35.0261 34.1935 35.2761 33.9435C35.5262 33.6934 35.6667 33.3543 35.6667 33.0007V26.334Z" fill="white"/>
</g>
<defs>
<linearGradient id="paint0_linear_1628_5222" x1="3.5" y1="4.5" x2="54.5" y2="54.5" gradientUnits="userSpaceOnUse">
<stop stop-color="#15B3A8"/>
<stop offset="1" stop-color="#0B97B0"/>
</linearGradient>
<clipPath id="clip0_1628_5222">
<rect width="32" height="32" fill="white" transform="translate(13 13)"/>
</clipPath>
</defs>
</svg>
