<svg viewBox="0 0 179.9997 47.9994" x="0" y="0" fill="none" xmlns="http://www.w3.org/2000/svg"><g id="Frame 427321370_3" xmlns="http://www.w3.org/2000/svg">
<g id="Group_16">
<path id="Vector_84" d="M22.59,0.587c0.783,-0.783 2.051,-0.782 2.834,0l3.897,3.899c0.195,0.196 0.195,0.513 0,0.709l-11.334,11.339c-0.196,0.196 -0.513,0.196 -0.708,0l-3.897,-3.899c-0.783,-0.783 -0.783,-2.052 0,-2.835z" fill="#1A8E46"/>
<path id="Vector_85" d="M23.646,12.315c0.195,-0.196 0.512,-0.195 0.707,0.001l4.961,4.962c0.195,0.196 0.196,0.513 0,0.708l-0.883,0.884c-1.22,1.22 -2.8,1.917 -4.401,1.915c-1.601,-0.003 -3.222,-0.705 -4.445,-1.928l-0.885,-0.886c-0.196,-0.196 -0.197,-0.512 -0.001,-0.708z" fill="#A6DBAB"/>
<path id="Vector_86" d="M34.641,9.821c0.783,0.784 0.783,2.054 0,2.838l-3.9,3.901c-0.195,0.196 -0.513,0.196 -0.709,0l-4.963,-4.965c-0.196,-0.196 -0.196,-0.513 0,-0.71l4.963,-4.965c0.196,-0.195 0.513,-0.195 0.709,0l3.9,3.901z" fill="#1A8E46"/>
<path id="Vector_87" d="M0.587,25.421c-0.783,-0.783 -0.782,-2.052 0,-2.835l3.897,-3.899c0.195,-0.195 0.513,-0.195 0.708,0l11.334,11.34c0.196,0.195 0.196,0.513 0,0.708l-3.897,3.899c-0.783,0.784 -2.052,0.784 -2.834,0z" fill="#1A8E46"/>
<path id="Vector_88" d="M12.29,24.383c-0.195,-0.196 -0.194,-0.513 0.001,-0.708l4.96,-4.963c0.196,-0.196 0.513,-0.196 0.708,-0.001l0.883,0.884c1.22,1.22 1.916,2.802 1.914,4.404c-0.002,1.601 -0.704,3.223 -1.927,4.446l-0.885,0.886c-0.196,0.196 -0.512,0.197 -0.708,0.001z" fill="#A6DBAB"/>
<path id="Vector_89" d="M9.808,13.36c0.783,-0.783 2.053,-0.783 2.836,0l3.9,3.902c0.195,0.196 0.195,0.514 0,0.71l-4.963,4.966c-0.196,0.195 -0.513,0.195 -0.709,0l-4.963,-4.966c-0.196,-0.196 -0.196,-0.513 0,-0.71l3.899,-3.901z" fill="#1A8E46"/>
<path id="Vector_90" d="M25.408,47.412c-0.783,0.783 -2.051,0.783 -2.834,0l-3.897,-3.899c-0.195,-0.195 -0.195,-0.513 0,-0.709l11.334,-11.339c0.196,-0.196 0.513,-0.196 0.709,0l3.897,3.899c0.783,0.783 0.783,2.053 0,2.835z" fill="#1A8E46"/>
<path id="Vector_91" d="M24.371,35.704c-0.195,0.195 -0.512,0.195 -0.707,-0.001l-4.961,-4.963c-0.195,-0.195 -0.196,-0.512 -0.001,-0.708l0.884,-0.884c1.219,-1.22 2.8,-1.916 4.401,-1.914c1.601,0.002 3.222,0.704 4.445,1.928l0.885,0.885c0.196,0.196 0.196,0.513 0.001,0.708z" fill="#A6DBAB"/>
<path id="Vector_92" d="M13.353,38.188c-0.783,-0.783 -0.783,-2.053 0,-2.837l3.9,-3.902c0.196,-0.195 0.513,-0.195 0.71,0l4.963,4.966c0.196,0.195 0.196,0.513 0,0.709l-4.963,4.965c-0.196,0.196 -0.513,0.196 -0.71,0l-3.899,-3.901z" fill="#1A8E46"/>
<path id="Vector_93" d="M47.415,22.584c0.782,0.783 0.782,2.052 0,2.835l-3.897,3.899c-0.196,0.196 -0.513,0.196 -0.709,0l-11.334,-11.339c-0.195,-0.196 -0.195,-0.513 0,-0.709l3.897,-3.899c0.783,-0.783 2.052,-0.783 2.834,0z" fill="#1A8E46"/>
<path id="Vector_94" d="M35.69,23.639c0.196,0.195 0.195,0.512 0,0.708l-4.961,4.963c-0.195,0.195 -0.512,0.196 -0.708,0l-0.883,-0.883c-1.22,-1.221 -1.916,-2.802 -1.913,-4.404c0.002,-1.601 0.703,-3.223 1.926,-4.447l0.886,-0.885c0.195,-0.196 0.512,-0.197 0.707,-0.001z" fill="#A6DBAB"/>
<path id="Vector_95" d="M38.182,34.641c-0.783,0.783 -2.052,0.783 -2.836,0l-3.899,-3.902c-0.196,-0.195 -0.196,-0.513 0,-0.709l4.963,-4.966c0.195,-0.196 0.513,-0.196 0.709,0l4.963,4.966c0.195,0.195 0.195,0.513 0,0.709l-3.9,3.901z" fill="#1A8E46"/>
</g>
<g id="Frame 17_3">
<g id="Group_17">
<path id="Vector_96" d="M78.379,15.539c-3.683,0 -7.266,1.559 -7.465,5.706h4.347c0.166,-1.361 1.261,-1.99 3.119,-1.99c1.859,0 2.721,0.796 2.721,2.09v0.995h-4.711c-3.649,0 -6.104,1.493 -6.104,4.578c0,3.085 2.289,5.242 6.337,5.242c1.791,0 3.285,-0.564 4.479,-1.327v0.929h4.28v-10.418c0,-4.015 -3.052,-5.806 -7.001,-5.806zM77.152,28.611c-2.057,0 -2.721,-0.895 -2.721,-1.726c0,-0.696 0.531,-1.327 1.857,-1.327h4.811v1.791c-1.46,0.963 -2.555,1.261 -3.948,1.261z" fill="black"/>
<path id="Vector_97" d="M88.883,15.937v15.826h4.347v-15.826z" fill="black"/>
<path id="Vector_98" d="M114.972,31.764h5.607l-6.966,-9.257l6.204,-6.57h-5.508l-6.337,6.802v-14.532h-2.16c-1.207,0 -2.186,0.979 -2.186,2.186v21.371h4.347v-3.318l2.654,-2.787l4.347,6.105z" fill="black"/>
<path id="Vector_99" d="M122.674,15.939v15.826h4.347v-15.826z" fill="black"/>
<path id="Vector_100" d="M133.926,26.288l-4.015,-0.032c0.331,4.611 3.849,5.905 7.332,5.905c4.015,0 7.067,-1.725 7.067,-5.242c0,-3.052 -2.289,-4.18 -4.744,-4.611l-2.854,-0.464c-1.526,-0.266 -1.957,-0.962 -1.957,-1.559c0,-0.764 0.797,-1.328 2.455,-1.328c1.527,0 2.887,0.464 2.987,1.892h4.014c-0.365,-4.546 -4.147,-5.342 -7.001,-5.342c-4.014,0 -6.768,1.957 -6.768,5.209c0,2.986 2.356,4.247 4.678,4.645l3.418,0.597c1.095,0.199 1.626,0.73 1.626,1.361c0,0.896 -1.161,1.327 -2.82,1.327c-1.858,0 -3.152,-0.564 -3.417,-2.355z" fill="black"/>
<path id="Vector_101" d="M154.064,15.539c-3.683,0 -7.266,1.559 -7.465,5.706h4.347c0.165,-1.361 1.26,-1.99 3.119,-1.99c1.858,0 2.721,0.796 2.721,2.09v0.995h-4.711c-3.649,0 -6.105,1.493 -6.105,4.578c0,3.085 2.289,5.242 6.337,5.242c1.792,0 3.285,-0.564 4.479,-1.327v0.929h4.28v-10.418c0,-4.015 -3.052,-5.806 -7.001,-5.806zM152.836,28.611c-2.057,0 -2.721,-0.895 -2.721,-1.726c0,-0.696 0.531,-1.327 1.859,-1.327h4.811v1.791c-1.459,0.963 -2.554,1.261 -3.949,1.261z" fill="black"/>
<path id="Vector_102" d="M173.272,15.539c-1.791,0 -3.285,0.564 -4.578,1.593v-1.195h-4.346v15.826h4.335v-8.639c0,-2.004 1.624,-3.628 3.627,-3.628c2.004,0 3.628,1.624 3.628,3.628v8.639h4.335v-8.593c0,-4.645 -2.787,-7.63 -7.001,-7.63z" fill="black"/>
<path id="Vector_103" d="M63.037,15.937v16.987c0,2.199 -0.716,2.872 -3.11,3.079h-0.199v3.789h0.545v-0.002c5.626,-0.116 7.111,-2.701 7.111,-7.43v-16.423z" fill="black"/>
<path id="Vector_104" d="M91.073,8.207h2.157v4.347h-4.347v-2.157c0,-1.209 0.982,-2.19 2.19,-2.19z" fill="black"/>
<path id="Vector_105" d="M124.864,8.207h2.157v4.347h-4.347v-2.157c0,-1.209 0.982,-2.19 2.19,-2.19z" fill="black"/>
<path id="Vector_106" d="M65.226,8.207h2.156v4.347h-4.346v-2.157c0,-1.209 0.981,-2.19 2.19,-2.19z" fill="black"/>
</g>
</g>
</g></svg>