<svg width="25" height="24" viewBox="0 0 25 24" fill="none" xmlns="http://www.w3.org/2000/svg">
<path d="M5.63782 0.586914H19.3302C21.7071 0.586981 23.6328 2.5136 23.6329 4.88965V18.582C23.6329 20.9582 21.7072 22.8847 19.3302 22.8848H5.63782C3.26184 22.8846 1.33515 20.958 1.33508 18.582V4.88965C1.33526 2.51374 3.26191 0.587091 5.63782 0.586914ZM5.0509 19.1689H9.1593V7.2373H5.0509V19.1689ZM9.94153 19.1689H14.049V13.1016C14.049 11.8659 14.8048 11.3308 15.4366 11.3105C15.7648 11.3001 16.0881 11.4215 16.3341 11.6846C16.5794 11.947 16.7872 12.3954 16.7872 13.1016V19.1689H20.8947V11.9717C20.8947 10.5813 20.5226 9.49151 19.8878 8.70215C19.2535 7.91353 18.3934 7.47025 17.5021 7.30859C16.32 7.0943 15.0199 7.37174 14.049 8.05371V7.2373H9.94153V19.1689ZM7.10559 2.54688C5.83252 2.54688 4.80691 3.58624 4.80676 4.8584C4.80676 6.13069 5.83243 7.1709 7.10559 7.1709C8.37974 7.17065 9.40344 6.13032 9.40344 4.8584C9.40329 3.58639 8.37845 2.54712 7.10559 2.54688Z" fill="#1E1E1E" stroke="#9CA3AF" stroke-width="1.17359"/>
</svg>
