<svg width="22" height="27" viewBox="0 0 22 27" fill="none" xmlns="http://www.w3.org/2000/svg">
<path d="M12.7813 0C13.4885 0.000151033 14.1667 0.281202 14.6667 0.781333L20.552 6.66667C21.0521 7.16665 21.3332 7.84481 21.3333 8.552V24C21.3333 24.7072 21.0524 25.3855 20.5523 25.8856C20.0522 26.3857 19.3739 26.6667 18.6667 26.6667H2.66667C1.95942 26.6667 1.28115 26.3857 0.781048 25.8856C0.280951 25.3855 0 24.7072 0 24V2.66667C0 1.95942 0.280951 1.28115 0.781048 0.781048C1.28115 0.280951 1.95942 0 2.66667 0H12.7813ZM10.6667 2.66667H2.66667V24H18.6667V10.6667H12.6667C12.1362 10.6667 11.6275 10.456 11.2525 10.0809C10.8774 9.70581 10.6667 9.1971 10.6667 8.66667V2.66667ZM14.6667 16C15.0203 16 15.3594 16.1405 15.6095 16.3905C15.8595 16.6406 16 16.9797 16 17.3333C16 17.687 15.8595 18.0261 15.6095 18.2761C15.3594 18.5262 15.0203 18.6667 14.6667 18.6667H6.66667C6.31305 18.6667 5.97391 18.5262 5.72386 18.2761C5.47381 18.0261 5.33333 17.687 5.33333 17.3333C5.33333 16.9797 5.47381 16.6406 5.72386 16.3905C5.97391 16.1405 6.31305 16 6.66667 16H14.6667ZM8 10.6667C8.35362 10.6667 8.69276 10.8071 8.94281 11.0572C9.19286 11.3072 9.33333 11.6464 9.33333 12C9.33333 12.3536 9.19286 12.6928 8.94281 12.9428C8.69276 13.1929 8.35362 13.3333 8 13.3333H6.66667C6.31305 13.3333 5.97391 13.1929 5.72386 12.9428C5.47381 12.6928 5.33333 12.3536 5.33333 12C5.33333 11.6464 5.47381 11.3072 5.72386 11.0572C5.97391 10.8071 6.31305 10.6667 6.66667 10.6667H8ZM13.3333 3.21867V8H18.1147L13.3333 3.21867Z" fill="white"/>
</svg>
