<svg width="1440" height="896" viewBox="0 0 1440 896" fill="none" xmlns="http://www.w3.org/2000/svg">
<path d="M107.278 341.651H183.062V250.09H184.234V341.651H260.015V250.09H261.188V341.651H336.972V250.09H338.145V341.651H412.763V250.09H413.936V341.651H489.715V250.09H490.888V341.651H566.672V250.09H567.845V341.651H643.629V250.09H644.802V341.651H719.416V250.09H720.589V341.651H796.373V250.09H797.546V341.651H873.33V250.09H874.503V341.651H949.116V250.09H950.289V341.651H1026.07V250.09H1027.25V341.651H1103.03V250.09H1104.2V341.651H1179.98V250.09H1181.16V341.651H1255.77V250.09H1256.95V341.651H1332.73V250.09H1333.9V341.651H1440V342.824H1333.9V406.301H1440V407.474H1333.9V470.953H1440V472.126H1333.9V535.605H1440V536.778H1333.9V600.256H1440V601.429H1333.9V664.91H1440V666.083H1333.9V729.561H1440V730.733H1333.9V794.21H1440V795.383H1333.9V894.962H1332.73V795.383H1256.95V894.962H1255.77V795.383H1181.16V894.962H1179.98V795.383H1104.2V894.962H1103.03V795.383H1027.25V894.962H1026.07V795.383H950.289V894.962H949.116V795.383H874.503V894.962H873.33V795.383H797.546V894.962H796.373V795.383H720.589V894.962H719.416V795.383H644.802V894.962H643.629V795.383H567.845V894.962H566.672V795.383H490.888V894.962H489.715V795.383H413.936V894.962H412.763V795.383H338.145V894.962H336.972V795.383H261.188V894.962H260.015V795.383H184.234V894.962H183.062V795.383H107.278V894.962H106.105V795.383H0V794.21H106.105V730.733H0V729.561H106.105V666.083H0V664.91H106.105V601.429H0V600.256H106.105V536.778H0V535.605H106.105V472.126H0V470.953H106.105V407.474H0V406.301H106.105V342.824H0V341.651H106.105V250.09H107.278V341.651ZM1256.95 730.733V794.21H1332.73V730.733H1256.95ZM107.278 794.21H183.062V730.733H107.278V794.21ZM184.234 794.21H260.015V730.733H184.234V794.21ZM261.188 794.21H336.972V730.733H261.188V794.21ZM338.145 794.21H412.763V730.733H338.145V794.21ZM413.936 794.21H489.715V730.733H413.936V794.21ZM490.888 794.21H566.672V730.733H490.888V794.21ZM567.845 794.21H643.629V730.733H567.845V794.21ZM644.802 794.21H719.416V730.733H644.802V794.21ZM720.589 794.21H796.373V730.733H720.589V794.21ZM797.546 794.21H873.33V730.733H797.546V794.21ZM874.503 794.21H949.116V730.733H874.503V794.21ZM950.289 794.21H1026.07V730.733H950.289V794.21ZM1027.25 794.21H1103.03V730.733H1027.25V794.21ZM1104.2 794.21H1179.98V730.733H1104.2V794.21ZM1181.16 794.21H1255.77V730.733H1181.16V794.21ZM1256.95 666.083V729.561H1332.73V666.083H1256.95ZM107.278 729.561H183.062V666.083H107.278V729.561ZM184.234 729.561H260.015V666.083H184.234V729.561ZM261.188 729.561H336.972V666.083H261.188V729.561ZM338.145 729.561H412.763V666.083H338.145V729.561ZM413.936 729.561H489.715V666.083H413.936V729.561ZM490.888 729.561H566.672V666.083H490.888V729.561ZM567.845 729.561H643.629V666.083H567.845V729.561ZM644.802 729.561H719.416V666.083H644.802V729.561ZM720.589 729.561H796.373V666.083H720.589V729.561ZM797.546 729.561H873.33V666.083H797.546V729.561ZM874.503 729.561H949.116V666.083H874.503V729.561ZM950.289 729.561H1026.07V666.083H950.289V729.561ZM1027.25 729.561H1103.03V666.083H1027.25V729.561ZM1104.2 729.561H1179.98V666.083H1104.2V729.561ZM1181.16 729.561H1255.77V666.083H1181.16V729.561ZM1256.95 601.429V664.91H1332.73V601.429H1256.95ZM107.278 664.91H183.062V601.429H107.278V664.91ZM184.234 664.91H260.015V601.429H184.234V664.91ZM261.188 664.91H336.972V601.429H261.188V664.91ZM338.145 664.91H412.763V601.429H338.145V664.91ZM413.936 664.91H489.715V601.429H413.936V664.91ZM490.888 664.91H566.672V601.429H490.888V664.91ZM567.845 664.91H643.629V601.429H567.845V664.91ZM644.802 664.91H719.416V601.429H644.802V664.91ZM720.589 664.91H796.373V601.429H720.589V664.91ZM797.546 664.91H873.33V601.429H797.546V664.91ZM874.503 664.91H949.116V601.429H874.503V664.91ZM950.289 664.91H1026.07V601.429H950.289V664.91ZM1027.25 664.91H1103.03V601.429H1027.25V664.91ZM1104.2 664.91H1179.98V601.429H1104.2V664.91ZM1181.16 664.91H1255.77V601.429H1181.16V664.91ZM1256.95 536.778V600.256H1332.73V536.778H1256.95ZM107.278 600.256H183.062V536.778H107.278V600.256ZM184.234 600.256H260.015V536.778H184.234V600.256ZM261.188 600.256H336.972V536.778H261.188V600.256ZM338.145 600.256H412.763V536.778H338.145V600.256ZM413.936 600.256H489.715V536.778H413.936V600.256ZM490.888 600.256H566.672V536.778H490.888V600.256ZM567.845 600.256H643.629V536.778H567.845V600.256ZM644.802 600.256H719.416V536.778H644.802V600.256ZM720.589 600.256H796.373V536.778H720.589V600.256ZM797.546 600.256H873.33V536.778H797.546V600.256ZM874.503 600.256H949.116V536.778H874.503V600.256ZM950.289 600.256H1026.07V536.778H950.289V600.256ZM1027.25 600.256H1103.03V536.778H1027.25V600.256ZM1104.2 600.256H1179.98V536.778H1104.2V600.256ZM1181.16 600.256H1255.77V536.778H1181.16V600.256ZM1256.95 472.126V535.605H1332.73V472.126H1256.95ZM107.278 535.605H183.062V472.126H107.278V535.605ZM184.234 535.605H260.015V472.126H184.234V535.605ZM261.188 535.605H336.972V472.126H261.188V535.605ZM338.145 535.605H412.763V472.126H338.145V535.605ZM413.936 535.605H489.715V472.126H413.936V535.605ZM490.888 535.605H566.672V472.126H490.888V535.605ZM567.845 535.605H643.629V472.126H567.845V535.605ZM644.802 535.605H719.416V472.126H644.802V535.605ZM720.589 535.605H796.373V472.126H720.589V535.605ZM797.546 535.605H873.33V472.126H797.546V535.605ZM874.503 535.605H949.116V472.126H874.503V535.605ZM950.289 535.605H1026.07V472.126H950.289V535.605ZM1027.25 535.605H1103.03V472.126H1027.25V535.605ZM1104.2 535.605H1179.98V472.126H1104.2V535.605ZM1181.16 535.605H1255.77V472.126H1181.16V535.605ZM1256.95 407.474V470.953H1332.73V407.474H1256.95ZM107.278 470.953H183.062V407.474H107.278V470.953ZM184.234 470.953H260.015V407.474H184.234V470.953ZM261.188 470.953H336.972V407.474H261.188V470.953ZM338.145 470.953H412.763V407.474H338.145V470.953ZM413.936 470.953H489.715V407.474H413.936V470.953ZM490.888 470.953H566.672V407.474H490.888V470.953ZM567.845 470.953H643.629V407.474H567.845V470.953ZM644.802 470.953H719.416V407.474H644.802V470.953ZM720.589 470.953H796.373V407.474H720.589V470.953ZM797.546 470.953H873.33V407.474H797.546V470.953ZM874.503 470.953H949.116V407.474H874.503V470.953ZM950.289 470.953H1026.07V407.474H950.289V470.953ZM1027.25 470.953H1103.03V407.474H1027.25V470.953ZM1104.2 470.953H1179.98V407.474H1104.2V470.953ZM1181.16 470.953H1255.77V407.474H1181.16V470.953ZM1256.95 342.824V406.301H1332.73V342.824H1256.95ZM107.278 406.301H183.062V342.824H107.278V406.301ZM184.234 406.301H260.015V342.824H184.234V406.301ZM261.188 406.301H336.972V342.824H261.188V406.301ZM338.145 406.301H412.763V342.824H338.145V406.301ZM413.936 406.301H489.715V342.824H413.936V406.301ZM490.888 406.301H566.672V342.824H490.888V406.301ZM567.845 406.301H643.629V342.824H567.845V406.301ZM644.802 406.301H719.416V342.824H644.802V406.301ZM720.589 406.301H796.373V342.824H720.589V406.301ZM797.546 406.301H873.33V342.824H797.546V406.301ZM874.503 406.301H949.116V342.824H874.503V406.301ZM950.289 406.301H1026.07V342.824H950.289V406.301ZM1027.25 406.301H1103.03V342.824H1027.25V406.301ZM1104.2 406.301H1179.98V342.824H1104.2V406.301ZM1181.16 406.301H1255.77V342.824H1181.16V406.301Z" fill="url(#paint0_radial_1571_3316)"/>
<rect opacity="0.5" width="1440" height="896" fill="url(#paint1_linear_1571_3316)" fill-opacity="0.5"/>
<defs>
<radialGradient id="paint0_radial_1571_3316" cx="0" cy="0" r="1" gradientUnits="userSpaceOnUse" gradientTransform="translate(716.388 1220.85) rotate(180) scale(875.136 694.92)">
<stop stop-color="#B3B3B3"/>
<stop offset="1" stop-color="#D3D3D3" stop-opacity="0.1"/>
</radialGradient>
<linearGradient id="paint1_linear_1571_3316" x1="720.114" y1="3.93442e-09" x2="720.043" y2="991.567" gradientUnits="userSpaceOnUse">
<stop stop-color="#FBF9F6"/>
<stop offset="0.5" stop-color="#FBF9F6"/>
<stop offset="1" stop-color="#2563EB"/>
</linearGradient>
</defs>
</svg>
