<svg width="17" height="18" viewBox="0 0 17 18" fill="none" xmlns="http://www.w3.org/2000/svg">
<path d="M7.76525 1.49995C8.02052 0.810103 8.99623 0.810105 9.25149 1.49995L10.9501 6.09025C11.0303 6.30713 11.2013 6.47813 11.4182 6.55839L16.0085 8.25695C16.6983 8.51222 16.6983 9.48793 16.0085 9.74319L11.4182 11.4418C11.2013 11.522 11.0303 11.693 10.9501 11.9099L9.25149 16.5002C8.99623 17.19 8.02052 17.19 7.76525 16.5002L6.06669 11.9099C5.98643 11.693 5.81543 11.522 5.59855 11.4418L1.00825 9.74319C0.318404 9.48793 0.318405 8.51222 1.00825 8.25695L5.59855 6.55839C5.81543 6.47813 5.98643 6.30713 6.06669 6.09025L7.76525 1.49995Z" fill="#006834"/>
</svg>
