<svg width="58" height="58" viewBox="0 0 58 58" fill="none" xmlns="http://www.w3.org/2000/svg">
<rect width="58" height="58" rx="12" fill="url(#paint0_linear_1628_5220)"/>
<g clip-path="url(#clip0_1628_5220)">
<path fill-rule="evenodd" clip-rule="evenodd" d="M27.6667 18.3327C27.1414 18.3327 26.6213 18.4361 26.136 18.6372C25.6507 18.8382 25.2097 19.1328 24.8383 19.5043C24.4668 19.8757 24.1722 20.3166 23.9712 20.8019C23.7702 21.2873 23.6667 21.8074 23.6667 22.3327C23.6667 22.858 23.7702 23.3781 23.9712 23.8634C24.1722 24.3487 24.4668 24.7897 24.8383 25.1611C25.2097 25.5325 25.6507 25.8272 26.136 26.0282C26.6213 26.2292 27.1414 26.3327 27.6667 26.3327C28.7276 26.3327 29.745 25.9113 30.4951 25.1611C31.2453 24.411 31.6667 23.3935 31.6667 22.3327C31.6667 21.2718 31.2453 20.2544 30.4951 19.5043C29.745 18.7541 28.7276 18.3327 27.6667 18.3327ZM21 22.3327C21 20.5646 21.7024 18.8689 22.9526 17.6186C24.2029 16.3684 25.8986 15.666 27.6667 15.666C29.4348 15.666 31.1305 16.3684 32.3807 17.6186C33.631 18.8689 34.3334 20.5646 34.3334 22.3327C34.3334 24.1008 33.631 25.7965 32.3807 27.0467C31.1305 28.297 29.4348 28.9993 27.6667 28.9993C25.8986 28.9993 24.2029 28.297 22.9526 27.0467C21.7024 25.7965 21 24.1008 21 22.3327ZM18.884 36.4673C18.4534 37.014 18.3334 37.4273 18.3334 37.666C18.3334 37.8287 18.3827 38.0007 18.6734 38.234C19.0054 38.5007 19.5827 38.7767 20.4654 39.01C22.2227 39.4767 24.748 39.666 27.6667 39.666C27.9627 39.666 28.2547 39.6633 28.544 39.6593C28.8976 39.6546 29.2387 39.7905 29.4921 40.0371C29.7455 40.2838 29.8906 40.6211 29.8954 40.9747C29.9001 41.3283 29.7642 41.6693 29.5176 41.9228C29.2709 42.1762 28.9336 42.3212 28.58 42.326C28.2787 42.33 27.9734 42.3327 27.6667 42.3327C24.6947 42.3327 21.8867 42.146 19.7827 41.5887C18.736 41.3113 17.7507 40.914 17.004 40.314C16.2134 39.6793 15.6667 38.7927 15.6667 37.666C15.6667 36.6167 16.144 35.6353 16.792 34.814C17.4507 33.9807 18.3614 33.214 19.4294 32.5607C21.5667 31.2593 24.4734 30.3327 27.6667 30.3327C28.2627 30.3327 28.8494 30.3647 29.4214 30.426C29.773 30.4633 30.0955 30.6388 30.3178 30.9139C30.5401 31.1889 30.644 31.541 30.6067 31.8927C30.5694 32.2444 30.3939 32.5668 30.1188 32.7891C29.8438 33.0114 29.4917 33.1153 29.14 33.078C28.66 33.026 28.1667 32.9993 27.6667 32.9993C24.9694 32.9993 22.5427 33.786 20.8187 34.838C19.956 35.3633 19.304 35.934 18.884 36.4673ZM41.944 34.4233C42.1869 34.1719 42.3213 33.8351 42.3183 33.4855C42.3152 33.1359 42.175 32.8015 41.9278 32.5543C41.6806 32.307 41.3462 32.1668 40.9966 32.1638C40.647 32.1607 40.3102 32.2951 40.0587 32.538L35.816 36.7807L33.9307 34.8953C33.6792 34.6525 33.3424 34.5181 32.9928 34.5211C32.6432 34.5242 32.3088 34.6644 32.0616 34.9116C31.8144 35.1588 31.6742 35.4932 31.6711 35.8428C31.6681 36.1924 31.8025 36.5292 32.0454 36.7807L34.7787 39.514C34.9149 39.6503 35.0766 39.7584 35.2546 39.8321C35.4326 39.9059 35.6234 39.9438 35.816 39.9438C36.0087 39.9438 36.1995 39.9059 36.3774 39.8321C36.5554 39.7584 36.7172 39.6503 36.8534 39.514L41.944 34.4233Z" fill="white"/>
</g>
<defs>
<linearGradient id="paint0_linear_1628_5220" x1="3.5" y1="4.5" x2="54.5" y2="54.5" gradientUnits="userSpaceOnUse">
<stop stop-color="#23C25D" stop-opacity="0.8"/>
<stop offset="1" stop-color="#19A64C"/>
</linearGradient>
<clipPath id="clip0_1628_5220">
<rect width="32" height="32" fill="white" transform="translate(13 13)"/>
</clipPath>
</defs>
</svg>
