<svg width="27" height="27" viewBox="0 0 27 27" fill="none" xmlns="http://www.w3.org/2000/svg">
<path fill-rule="evenodd" clip-rule="evenodd" d="M12 2.66667C11.4747 2.66667 10.9546 2.77013 10.4693 2.97115C9.98396 3.17217 9.54301 3.46681 9.17157 3.83824C8.80014 4.20967 8.5055 4.65063 8.30448 5.13593C8.10346 5.62123 8 6.14138 8 6.66667C8 7.19195 8.10346 7.7121 8.30448 8.1974C8.5055 8.6827 8.80014 9.12366 9.17157 9.49509C9.54301 9.86653 9.98396 10.1612 10.4693 10.3622C10.9546 10.5632 11.4747 10.6667 12 10.6667C13.0609 10.6667 14.0783 10.2452 14.8284 9.49509C15.5786 8.74495 16 7.72753 16 6.66667C16 5.6058 15.5786 4.58839 14.8284 3.83824C14.0783 3.08809 13.0609 2.66667 12 2.66667ZM5.33333 6.66667C5.33333 4.89856 6.03571 3.20286 7.28595 1.95262C8.5362 0.702379 10.2319 0 12 0C13.7681 0 15.4638 0.702379 16.714 1.95262C17.9643 3.20286 18.6667 4.89856 18.6667 6.66667C18.6667 8.43478 17.9643 10.1305 16.714 11.3807C15.4638 12.631 13.7681 13.3333 12 13.3333C10.2319 13.3333 8.5362 12.631 7.28595 11.3807C6.03571 10.1305 5.33333 8.43478 5.33333 6.66667ZM3.21733 20.8013C2.78667 21.348 2.66667 21.7613 2.66667 22C2.66667 22.1627 2.716 22.3347 3.00667 22.568C3.33867 22.8347 3.916 23.1107 4.79867 23.344C6.556 23.8107 9.08133 24 12 24C12.296 24 12.588 23.9973 12.8773 23.9933C13.231 23.9886 13.572 24.1245 13.8254 24.3711C14.0788 24.6178 14.2239 24.955 14.2287 25.3087C14.2334 25.6623 14.0975 26.0033 13.8509 26.2567C13.6042 26.5102 13.267 26.6552 12.9133 26.66C12.612 26.664 12.3067 26.6667 12 26.6667C9.028 26.6667 6.22 26.48 4.116 25.9227C3.06933 25.6453 2.084 25.248 1.33733 24.648C0.546667 24.0133 0 23.1267 0 22C0 20.9507 0.477333 19.9693 1.12533 19.148C1.784 18.3147 2.69467 17.548 3.76267 16.8947C5.9 15.5933 8.80667 14.6667 12 14.6667C12.596 14.6667 13.1827 14.6987 13.7547 14.76C14.1063 14.7973 14.4288 14.9728 14.6511 15.2478C14.8734 15.5229 14.9773 15.875 14.94 16.2267C14.9027 16.5783 14.7272 16.9008 14.4522 17.1231C14.1771 17.3454 13.825 17.4493 13.4733 17.412C12.9933 17.36 12.5 17.3333 12 17.3333C9.30267 17.3333 6.876 18.12 5.152 19.172C4.28933 19.6973 3.63733 20.268 3.21733 20.8013ZM26.2773 18.7573C26.5202 18.5059 26.6546 18.1691 26.6516 17.8195C26.6485 17.4699 26.5083 17.1355 26.2611 16.8882C26.0139 16.641 25.6795 16.5008 25.3299 16.4978C24.9803 16.4947 24.6435 16.6291 24.392 16.872L20.1493 21.1147L18.264 19.2293C18.0125 18.9865 17.6757 18.8521 17.3261 18.8551C16.9765 18.8581 16.6421 18.9984 16.3949 19.2456C16.1477 19.4928 16.0075 19.8272 16.0044 20.1768C16.0014 20.5264 16.1358 20.8632 16.3787 21.1147L19.112 23.848C19.2482 23.9843 19.4099 24.0924 19.5879 24.1661C19.7659 24.2399 19.9567 24.2778 20.1493 24.2778C20.342 24.2778 20.5328 24.2399 20.7108 24.1661C20.8888 24.0924 21.0505 23.9843 21.1867 23.848L26.2773 18.7573Z" fill="white"/>
</svg>
