<svg width="16" height="16" viewBox="0 0 16 16" fill="none" xmlns="http://www.w3.org/2000/svg">
<g clip-path="url(#clip0_677_5968)">
<path d="M8.49212 15.8749C4.05805 14.1846 0.984375 8.99419 0.984375 3.13717C0.984375 2.40068 1.03389 1.66106 1.1324 0.929774C2.02422 1.20915 2.94784 1.3504 3.88865 1.3504C5.49507 1.3504 7.07699 0.92821 8.49212 0.125C9.90726 0.92821 11.4887 1.3504 13.0956 1.3504C14.0369 1.3504 14.96 1.20915 15.8518 0.929774C15.9498 1.66106 15.9999 2.40015 15.9999 3.13717C15.9999 8.99419 12.9262 14.1846 8.49212 15.8749Z" fill="#05A65D"/>
<path d="M11.7258 4.50244L7.97464 8.25356L5.70026 5.97918L4.75781 6.92163L7.97464 10.1385L12.6682 5.44489L11.7258 4.50244Z" fill="white"/>
</g>
<defs>
<clipPath id="clip0_677_5968">
<rect width="15.015" height="15.7499" fill="white" transform="translate(0.984375 0.125)"/>
</clipPath>
</defs>
</svg>
