<svg width="42" height="42" viewBox="0 0 42 42" fill="none" xmlns="http://www.w3.org/2000/svg">
<g clip-path="url(#clip0_1450_6180)">
<path fill-rule="evenodd" clip-rule="evenodd" d="M8.75 8.75C8.75 8.28587 8.56563 7.84075 8.23744 7.51256C7.90925 7.18437 7.46413 7 7 7C6.53587 7 6.09075 7.18437 5.76256 7.51256C5.43437 7.84075 5.25 8.28587 5.25 8.75V33.25C5.25 33.7141 5.43437 34.1593 5.76256 34.4874C6.09075 34.8156 6.53587 35 7 35H35C35.4641 35 35.9093 34.8156 36.2374 34.4874C36.5656 34.1593 36.75 33.7141 36.75 33.25C36.75 32.7859 36.5656 32.3407 36.2374 32.0126C35.9093 31.6844 35.4641 31.5 35 31.5H8.75V8.75ZM15.75 21C15.75 20.5359 15.5656 20.0908 15.2374 19.7626C14.9092 19.4344 14.4641 19.25 14 19.25C13.5359 19.25 13.0908 19.4344 12.7626 19.7626C12.4344 20.0908 12.25 20.5359 12.25 21V26.25C12.25 26.7141 12.4344 27.1592 12.7626 27.4874C13.0908 27.8156 13.5359 28 14 28C14.4641 28 14.9092 27.8156 15.2374 27.4874C15.5656 27.1592 15.75 26.7141 15.75 26.25V21ZM21 10.5C21.4641 10.5 21.9092 10.6844 22.2374 11.0126C22.5656 11.3408 22.75 11.7859 22.75 12.25V26.25C22.75 26.7141 22.5656 27.1592 22.2374 27.4874C21.9092 27.8156 21.4641 28 21 28C20.5359 28 20.0908 27.8156 19.7626 27.4874C19.4344 27.1592 19.25 26.7141 19.25 26.25V12.25C19.25 11.7859 19.4344 11.3408 19.7626 11.0126C20.0908 10.6844 20.5359 10.5 21 10.5ZM29.75 17.5C29.75 17.0359 29.5656 16.5908 29.2374 16.2626C28.9093 15.9344 28.4641 15.75 28 15.75C27.5359 15.75 27.0908 15.9344 26.7626 16.2626C26.4344 16.5908 26.25 17.0359 26.25 17.5V26.25C26.25 26.7141 26.4344 27.1592 26.7626 27.4874C27.0908 27.8156 27.5359 28 28 28C28.4641 28 28.9093 27.8156 29.2374 27.4874C29.5656 27.1592 29.75 26.7141 29.75 26.25V17.5Z" fill="white"/>
</g>
<defs>
<clipPath id="clip0_1450_6180">
<rect width="42" height="42" fill="white"/>
</clipPath>
</defs>
</svg>
